<svg width="105" height="52" viewBox="0 0 105 52" fill="none" xmlns="http://www.w3.org/2000/svg">
<g clip-path="url(#clip0_336_2806)">
<path d="M95.7471 14.8313L104.208 2.77011H95.7471V14.8313ZM95.0691 3.78051L91.3205 9.36777L87.3934 3.41924V15.7978H87.2783L87.3934 15.9654V26.214H95.0691V15.7978V3.78051ZM86.7153 2.76953H78.3252L86.7153 14.9787V2.76953Z" fill="black"/>
<path d="M7.6861 8.77525H11.1896C12.6196 8.77525 13.5843 9.4793 13.5843 10.6533C13.5843 11.8273 12.6196 12.5648 11.1896 12.5648H7.6861V8.77583V8.77525ZM16.9092 17.0249C19.7693 15.6833 21.4849 13.2354 21.4849 10.2839C21.4849 8.10416 20.6265 6.29318 18.9109 4.88452C17.1953 3.44233 14.9075 2.73828 12.0832 2.73828H0V26.2133H7.6861V17.8296H8.75835L15.4075 26.2133H24.3803L16.9086 17.0244L16.9092 17.0249Z" fill="black"/>
<path d="M91.2724 5.47744C92.785 5.47744 94.0111 4.25127 94.0111 2.73872C94.0111 1.22617 92.785 0 91.2724 0C89.7599 0 88.5337 1.22617 88.5337 2.73872C88.5337 4.25127 89.7599 5.47744 91.2724 5.47744Z" fill="#F0B632"/>
<path d="M98.5765 28.748H0V34.7029H98.5765V28.748Z" fill="#F0B632"/>
<path d="M88.3726 44.5521L94.554 51.8H98.5766V36.877H93.9402V44.0827L87.8506 36.877H83.6917V51.8H88.3726V44.5521Z" fill="black"/>
<path d="M40.6098 21.5751H31.5219V19.1179H38.5248V14.8555H31.5219V13.3011H40.4491V8.66244H25.7751V26.2144H40.6092V21.5757L40.6098 21.5751ZM54.4282 18.8919H51.6751L53.0646 14.7295L54.4276 18.8919H54.4282ZM50.0184 22.9289H56.1126L57.449 26.2132H63.623L55.8987 8.56128H50.419L42.7213 26.2132H48.6548L50.0178 22.9289H50.0184ZM72.0154 13.3006C75.1426 13.3006 76.8802 14.7549 76.8802 17.4375C76.8802 20.1208 75.1426 21.5745 72.0154 21.5745H70.2513V13.3H72.0154V13.3006ZM72.39 26.2138C75.464 26.2138 77.9495 25.3867 79.9004 23.7566C81.8512 22.1265 82.8137 20.0208 82.8137 17.4381C82.8137 14.8555 81.8512 12.7491 79.9004 11.1197C77.9495 9.4896 75.464 8.66244 72.39 8.66244H64.5051V26.2144H72.39V26.2138Z" fill="black"/>
<path d="M6.75191 51.9999C8.90971 51.9999 10.6265 51.5647 11.9265 50.6722C13.249 49.7577 13.8987 48.5387 13.8987 47.0155C13.8987 44.6866 12.2513 43.2283 8.88716 42.2705C7.33283 41.8352 6.37388 41.6994 5.90972 41.5034C5.46926 41.3294 5.1814 40.9641 5.17446 40.7687C5.15192 40.104 5.75249 39.7942 6.68081 39.7491C7.6311 39.7028 9.23861 40.0156 10.1334 40.3878C11.2548 40.8317 12.0652 41.3127 12.8542 41.7485V37.3953C11.0213 36.5896 9.07213 36.1763 6.98428 36.1763C2.71493 36.1763 0.000488281 37.7872 0.000488281 40.9C0.000488281 43.4901 1.97274 44.8398 5.33689 45.7757C6.65942 46.1456 7.74613 46.2699 8.21029 46.4658C8.67445 46.6612 8.72531 47.0161 8.72531 47.234C8.72531 47.7126 8.50682 48.3034 6.84555 48.2918C5.7548 48.2849 4.47966 48.0294 3.11088 47.6155C1.7421 47.2017 0.74326 46.4069 0.00106631 45.819V50.3901C1.83401 51.4785 4.08487 52.0005 6.75307 52.0005L6.75191 51.9999Z" fill="black"/>
<path d="M82.3628 49.4768H14.9087V51.8005H82.3628V49.4768Z" fill="#F0B632"/>
<path d="M14.4387 42.6C14.4387 44.2352 15.0485 45.6416 16.2861 46.8022C17.5237 47.9629 19.0925 48.5352 20.9751 48.5352C22.8572 48.5352 24.4086 47.9791 25.6462 46.8184C26.8838 45.6572 27.4942 44.2514 27.4942 42.6C27.4942 40.9485 26.8838 39.5583 25.6462 38.3977C24.4086 37.2364 22.8572 36.6479 20.9751 36.6479C19.0925 36.6479 17.5237 37.2364 16.2861 38.3977C15.0485 39.5583 14.4387 40.9479 14.4387 42.6ZM19.0404 44.5786C18.5347 44.0554 18.2734 43.4011 18.2734 42.6C18.2734 41.7988 18.5347 41.1445 19.0404 40.6375C19.5456 40.1144 20.1907 39.8526 20.9751 39.8526C21.7595 39.8526 22.404 40.1138 22.9098 40.6375C23.415 41.1445 23.6768 41.7988 23.6768 42.6C23.6768 43.4011 23.4156 44.0549 22.9098 44.5786C22.4046 45.0855 21.7595 45.3473 20.9751 45.3473C20.1907 45.3473 19.5456 45.0855 19.0404 44.5786ZM37.6028 45.2982H32.06V36.8774H28.3127V48.3231H37.6022V45.2982H37.6028ZM39.4329 43.5809C39.4329 45.167 39.956 46.3936 41.019 47.26C42.0826 48.1265 43.4068 48.5352 45.0103 48.5352C46.6138 48.5352 47.9386 48.1265 48.9843 47.26C50.0473 46.3936 50.5704 45.167 50.5704 43.5809V36.8768H46.823V43.5971C46.823 44.8236 46.0386 45.3629 45.0103 45.3629C43.982 45.3629 43.1802 44.8231 43.1802 43.5971V36.8768H39.4329V43.5809ZM55.2068 39.9017V48.3225H58.9542V39.9017H62.4576V36.8768H51.738V39.9017H55.2062H55.2068ZM67.7564 36.8768H64.0091V48.3225H67.7564V36.8768ZM69.3073 42.6C69.3073 44.2352 69.9171 45.6416 71.1547 46.8022C72.3923 47.9629 73.961 48.5352 75.8431 48.5352C77.7258 48.5352 79.2766 47.9791 80.5142 46.8184C81.7523 45.6572 82.3622 44.2514 82.3622 42.6C82.3622 40.9485 81.7523 39.5583 80.5142 38.3977C79.2772 37.2364 77.7258 36.6479 75.8431 36.6479C73.9605 36.6479 72.3923 37.2364 71.1547 38.3977C69.9171 39.5583 69.3073 40.9479 69.3073 42.6ZM73.9084 44.5786C73.4032 44.0554 73.142 43.4011 73.142 42.6C73.142 41.7988 73.4032 41.1445 73.9084 40.6375C74.4142 40.1144 75.0587 39.8526 75.8431 39.8526C76.6275 39.8526 77.272 40.1138 77.7778 40.6375C78.283 41.1445 78.5443 41.7988 78.5443 42.6C78.5443 43.4011 78.283 44.0549 77.7778 44.5786C77.272 45.0855 76.6275 45.3473 75.8431 45.3473C75.0587 45.3473 74.4142 45.0855 73.9084 44.5786Z" fill="black"/>
</g>
<defs>
<clipPath id="clip0_336_2806">
<rect width="104.208" height="52" fill="white"/>
</clipPath>
</defs>
</svg>
