<svg width="40" height="40" viewBox="0 0 40 40" fill="none" xmlns="http://www.w3.org/2000/svg">
<g clip-path="url(#clip0_320_2959)">
<path d="M0 10.4708L-0.779987 8.6292V12.3125L0 10.4708ZM20 18.9414L19.22 20.7831L20 21.1134L20.78 20.7831L20 18.9414ZM40 10.4708L40.78 12.3125V8.6292L40 10.4708ZM0.779987 18.1586L-1.06165 17.3786L-2.62162 21.0619L-0.779987 21.8419L0.779987 18.1586ZM20 28.4708L19.22 30.3125L20 30.6428L20.78 30.3125L20 28.4708ZM40.78 21.8419L42.6216 21.0619L41.0616 17.3786L39.22 18.1586L40.78 21.8419ZM0.779987 27.688L-1.06165 26.908L-2.62162 30.5913L-0.779987 31.3713L0.779987 27.688ZM20 38.0002L19.22 39.8419L20 40.1722L20.78 39.8419L20 38.0002ZM40.78 31.3713L42.6216 30.5913L41.0616 26.908L39.22 27.688L40.78 31.3713ZM20 2.00024L20.78 0.158609L20 -0.171739L19.22 0.158609L20 2.00024ZM-0.779987 12.3125L19.22 20.7831L20.78 17.0998L0.779987 8.6292L-0.779987 12.3125ZM20.78 20.7831L40.78 12.3125L39.22 8.6292L19.22 17.0998L20.78 20.7831ZM-0.779987 21.8419L19.22 30.3125L20.78 26.6292L0.779987 18.1586L-0.779987 21.8419ZM20.78 30.3125L40.78 21.8419L39.22 18.1586L19.22 26.6292L20.78 30.3125ZM-0.779987 31.3713L19.22 39.8419L20.78 36.1586L0.779987 27.688L-0.779987 31.3713ZM20.78 39.8419L40.78 31.3713L39.22 27.688L19.22 36.1586L20.78 39.8419ZM0.779987 12.3125L20.78 3.84188L19.22 0.158609L-0.779987 8.6292L0.779987 12.3125ZM19.22 3.84188L39.22 12.3125L40.78 8.6292L20.78 0.158609L19.22 3.84188Z" fill="#F1B705"/>
</g>
<defs>
<clipPath id="clip0_320_2959">
<rect width="40" height="40" fill="white" transform="translate(0 0.000244141)"/>
</clipPath>
</defs>
</svg>
