<svg width="368" height="223" viewBox="0 0 368 223" fill="none" xmlns="http://www.w3.org/2000/svg">
<g clip-path="url(#clip0_1379_8934)">
<g clip-path="url(#clip1_1379_8934)">
<path d="M175 24L0 199M177 47L23 201M-2 176L152 22M177 72L48 201M-2 151L127 22M177 97L73 201M-2 126L102 22M177 122L98 201M-2 101L77 22M177 147L123 201M-2 76L52 22M177 172L148 201M-2 51L27 22M177 197L173 201M-2 26L2 22" stroke="#FBCB37" stroke-opacity="0.25" stroke-width="4"/>
</g>
<g clip-path="url(#clip2_1379_8934)">
<path d="M350 24L175 199M352 47L198 201M173 176L327 22M352 72L223 201M173 151L302 22M352 97L248 201M173 126L277 22M352 122L273 201M173 101L252 22M352 147L298 201M173 76L227 22M352 172L323 201M173 51L202 22M352 197L348 201M173 26L177 22" stroke="#FBCB37" stroke-opacity="0.25" stroke-width="4"/>
</g>
<g clip-path="url(#clip3_1379_8934)">
<path d="M525 24L350 199M527 47L373 201M348 176L502 22M527 72L398 201M348 151L477 22M527 97L423 201M348 126L452 22M527 122L448 201M348 101L427 22M527 147L473 201M348 76L402 22M527 172L498 201M348 51L377 22M527 197L523 201M348 26L352 22" stroke="#FBCB37" stroke-opacity="0.25" stroke-width="4"/>
</g>
</g>
<path d="M175 223L175 0M367 223V0" stroke="black"/>
<g clip-path="url(#clip4_1379_8934)">
<rect y="23" width="125" height="48" rx="24" fill="#FBC72E"/>
<path d="M39.1889 52L35.7287 47.3814H34.5604V52H33.1733V41.8182H34.5604V46.1733H35.0824L39.0398 41.8182H40.7152L36.6236 46.3324L40.8594 52H39.1889ZM44.823 52.1591C44.1203 52.1591 43.5055 51.995 42.9785 51.6669C42.4515 51.3355 42.0422 50.8748 41.7505 50.2848C41.4589 49.6948 41.313 49.0071 41.313 48.2216C41.313 47.4261 41.4589 46.7318 41.7505 46.1385C42.0422 45.5452 42.4515 45.0845 42.9785 44.7564C43.5055 44.4283 44.1203 44.2642 44.823 44.2642C45.5256 44.2642 46.1404 44.4283 46.6674 44.7564C47.1944 45.0845 47.6038 45.5452 47.8954 46.1385C48.1871 46.7318 48.3329 47.4261 48.3329 48.2216C48.3329 49.0071 48.1871 49.6948 47.8954 50.2848C47.6038 50.8748 47.1944 51.3355 46.6674 51.6669C46.1404 51.995 45.5256 52.1591 44.823 52.1591ZM44.823 51.0057C45.3201 51.0057 45.7278 50.8781 46.046 50.6229C46.3675 50.3643 46.6061 50.0246 46.7619 49.6037C46.9177 49.1795 46.9956 48.7171 46.9956 48.2166C46.9956 47.7195 46.9177 47.2588 46.7619 46.8345C46.6061 46.407 46.3675 46.0639 46.046 45.8054C45.7278 45.5436 45.3201 45.4126 44.823 45.4126C44.3291 45.4126 43.9215 45.5436 43.6 45.8054C43.2785 46.0639 43.0398 46.407 42.8841 46.8345C42.7283 47.2588 42.6504 47.7195 42.6504 48.2166C42.6504 48.7171 42.7283 49.1795 42.8841 49.6037C43.0398 50.0246 43.2785 50.3643 43.6 50.6229C43.9215 50.8781 44.3291 51.0057 44.823 51.0057ZM49.4192 52V50.8068H49.6926C49.9114 50.8068 50.0953 50.7621 50.2445 50.6726C50.3936 50.5831 50.5146 50.4257 50.6074 50.2003C50.7002 49.9749 50.7715 49.6634 50.8212 49.2656C50.8742 48.8646 50.9123 48.3575 50.9355 47.7443L51.0698 44.3636H56.28V52H54.9675V45.5518H52.3176L52.1983 48.2116C52.1718 48.8414 52.1122 49.3932 52.0194 49.8672C51.9299 50.3378 51.7956 50.7322 51.6167 51.0504C51.4377 51.3653 51.204 51.6023 50.9157 51.7614C50.6306 51.9205 50.2776 52 49.8567 52H49.4192ZM61.5027 52.1591C60.8 52.1591 60.1852 51.995 59.6582 51.6669C59.1312 51.3355 58.7219 50.8748 58.4302 50.2848C58.1386 49.6948 57.9927 49.0071 57.9927 48.2216C57.9927 47.4261 58.1386 46.7318 58.4302 46.1385C58.7219 45.5452 59.1312 45.0845 59.6582 44.7564C60.1852 44.4283 60.8 44.2642 61.5027 44.2642C62.2053 44.2642 62.8201 44.4283 63.3471 44.7564C63.8741 45.0845 64.2834 45.5452 64.5751 46.1385C64.8668 46.7318 65.0126 47.4261 65.0126 48.2216C65.0126 49.0071 64.8668 49.6948 64.5751 50.2848C64.2834 50.8748 63.8741 51.3355 63.3471 51.6669C62.8201 51.995 62.2053 52.1591 61.5027 52.1591ZM61.5027 51.0057C61.9998 51.0057 62.4075 50.8781 62.7257 50.6229C63.0472 50.3643 63.2858 50.0246 63.4416 49.6037C63.5974 49.1795 63.6752 48.7171 63.6752 48.2166C63.6752 47.7195 63.5974 47.2588 63.4416 46.8345C63.2858 46.407 63.0472 46.0639 62.7257 45.8054C62.4075 45.5436 61.9998 45.4126 61.5027 45.4126C61.0088 45.4126 60.6011 45.5436 60.2797 45.8054C59.9582 46.0639 59.7195 46.407 59.5637 46.8345C59.408 47.2588 59.3301 47.7195 59.3301 48.2166C59.3301 48.7171 59.408 49.1795 59.5637 49.6037C59.7195 50.0246 59.9582 50.3643 60.2797 50.6229C60.6011 50.8781 61.0088 51.0057 61.5027 51.0057ZM71.8809 47.5952V48.7834H67.7047V47.5952H71.8809ZM68.0527 44.3636V52H66.7353V44.3636H68.0527ZM72.8503 44.3636V52H71.5378V44.3636H72.8503ZM80.0566 47.5952V48.7834H75.8805V47.5952H80.0566ZM76.2285 44.3636V52H74.911V44.3636H76.2285ZM81.0261 44.3636V52H79.7136V44.3636H81.0261ZM84.1557 47.0582H86.3581C87.2729 47.0582 87.9739 47.2886 88.4611 47.7493C88.9516 48.2067 89.1969 48.7917 89.1969 49.5043C89.1969 49.9749 89.0875 50.3991 88.8688 50.777C88.65 51.1515 88.3285 51.4498 87.9043 51.6719C87.4834 51.8906 86.968 52 86.3581 52H83.0868V44.3636H84.4043V50.8118H86.3581C86.8056 50.8118 87.1718 50.6941 87.4569 50.4588C87.7419 50.2235 87.8861 49.9235 87.8894 49.5589C87.8861 49.1712 87.7419 48.8563 87.4569 48.6143C87.1718 48.3691 86.8056 48.2464 86.3581 48.2464H84.1557V47.0582ZM90.3453 52V44.3636H91.6777V52H90.3453Z" fill="black" fill-opacity="0.75"/>
<rect x="0.5" y="23.5" width="124" height="47" rx="23.5" stroke="black" stroke-opacity="0.75"/>
<rect x="141" y="23" width="194" height="48" rx="24" fill="#FBC72E"/>
<path d="M174.173 52V41.8182H180.423V43.0263H175.56V46.0092H177.991C178.734 46.0092 179.362 46.1302 179.876 46.3722C180.393 46.6141 180.786 46.9555 181.054 47.3963C181.326 47.8371 181.462 48.3575 181.462 48.9574C181.462 49.554 181.326 50.081 181.054 50.5384C180.786 50.9957 180.393 51.3537 179.876 51.6122C179.362 51.8707 178.734 52 177.991 52H174.173ZM175.56 50.8168H177.991C178.442 50.8168 178.823 50.7273 179.135 50.5483C179.45 50.3693 179.688 50.1373 179.851 49.8523C180.013 49.5639 180.094 49.259 180.094 48.9375C180.094 48.4635 179.912 48.0559 179.548 47.7145C179.186 47.3731 178.668 47.2024 177.991 47.2024H175.56V50.8168ZM185.472 52.174C184.989 52.174 184.549 52.0829 184.155 51.9006C183.764 51.7183 183.452 51.4548 183.22 51.1101C182.992 50.7621 182.877 50.3378 182.877 49.8374C182.877 49.4032 182.962 49.0485 183.131 48.7734C183.303 48.495 183.532 48.2763 183.817 48.1172C184.102 47.9581 184.419 47.8388 184.767 47.7592C185.115 47.6797 185.468 47.6184 185.825 47.5753C186.286 47.5156 186.659 47.4692 186.944 47.4361C187.232 47.4029 187.443 47.3482 187.575 47.272C187.708 47.1958 187.774 47.0649 187.774 46.8793V46.8395C187.774 46.3788 187.647 46.0208 187.392 45.7656C187.136 45.5104 186.753 45.3828 186.243 45.3828C185.713 45.3828 185.297 45.4988 184.995 45.7308C184.694 45.9628 184.481 46.2164 184.359 46.4915L183.106 46.1335C183.288 45.6695 183.542 45.3016 183.867 45.0298C184.195 44.7547 184.561 44.5592 184.965 44.4432C185.373 44.3239 185.789 44.2642 186.213 44.2642C186.488 44.2642 186.792 44.2973 187.123 44.3636C187.454 44.4266 187.769 44.5509 188.068 44.7365C188.369 44.9188 188.618 45.1889 188.813 45.5469C189.009 45.9015 189.107 46.3688 189.107 46.9489V52H187.794V50.9609H187.735C187.648 51.1399 187.511 51.3239 187.322 51.5128C187.133 51.6984 186.886 51.8558 186.581 51.9851C186.276 52.111 185.907 52.174 185.472 52.174ZM185.721 51.0504C186.162 51.0504 186.535 50.9643 186.84 50.7919C187.145 50.6196 187.377 50.3958 187.536 50.1207C187.698 49.8456 187.779 49.5523 187.779 49.2408V48.2116C187.726 48.268 187.62 48.3194 187.461 48.3658C187.302 48.4122 187.12 48.4519 186.914 48.4851C186.712 48.5182 186.513 48.5481 186.318 48.5746C186.125 48.5978 185.966 48.6177 185.84 48.6342C185.545 48.674 185.272 48.737 185.02 48.8232C184.771 48.9093 184.571 49.0369 184.419 49.206C184.269 49.3717 184.195 49.5954 184.195 49.8771C184.195 50.2649 184.339 50.5582 184.627 50.7571C184.916 50.9527 185.28 51.0504 185.721 51.0504ZM190.529 52V50.8068H190.802C191.021 50.8068 191.205 50.7621 191.354 50.6726C191.503 50.5831 191.624 50.4257 191.717 50.2003C191.81 49.9749 191.881 49.6634 191.931 49.2656C191.984 48.8646 192.022 48.3575 192.045 47.7443L192.179 44.3636H197.389V52H196.077V45.5518H193.427L193.308 48.2116C193.281 48.8414 193.222 49.3932 193.129 49.8672C193.039 50.3378 192.905 50.7322 192.726 51.0504C192.547 51.3653 192.313 51.6023 192.025 51.7614C191.74 51.9205 191.387 52 190.966 52H190.529ZM199.45 52V44.3636H200.782V47.625H201.528L204.163 44.3636H205.834L202.816 48.0625L205.873 52H204.193L201.792 48.8629H200.782V52H199.45ZM208.396 50.0909L211.921 44.3636H213.393V52H212.08V46.2678L208.575 52H207.079V44.3636H208.396V50.0909ZM219.288 52V44.3636H225.408V52H224.091V45.5518H220.6V52H219.288ZM230.729 52.1591C229.983 52.1591 229.342 51.9967 228.805 51.6719C228.268 51.3438 227.854 50.8864 227.562 50.2997C227.274 49.7098 227.129 49.022 227.129 48.2365C227.129 47.4543 227.274 46.7649 227.562 46.1683C227.854 45.5684 228.26 45.1011 228.78 44.7663C229.304 44.4316 229.915 44.2642 230.615 44.2642C231.029 44.2642 231.433 44.3338 231.828 44.473C232.225 44.6089 232.583 44.8277 232.901 45.1293C233.223 45.4276 233.477 45.8203 233.662 46.3075C233.851 46.7947 233.945 47.3897 233.945 48.0923V48.6044H227.965V47.5405H232.618C232.618 47.1295 232.535 46.7649 232.369 46.4467C232.207 46.1252 231.975 45.8717 231.673 45.6861C231.375 45.5005 231.024 45.4077 230.619 45.4077C230.175 45.4077 229.791 45.5154 229.466 45.7308C229.145 45.9463 228.896 46.228 228.72 46.576C228.545 46.924 228.457 47.2985 228.457 47.6996V48.4702C228.457 49.0137 228.551 49.4761 228.74 49.8572C228.932 50.2351 229.199 50.5234 229.541 50.7223C229.882 50.9179 230.28 51.0156 230.734 51.0156C231.029 51.0156 231.297 50.9742 231.539 50.8913C231.781 50.8052 231.988 50.6776 232.161 50.5085C232.336 50.3395 232.472 50.1274 232.568 49.8722L233.841 50.1605C233.725 50.5582 233.523 50.9079 233.235 51.2095C232.95 51.5078 232.593 51.7415 232.166 51.9105C231.741 52.0762 231.262 52.1591 230.729 52.1591ZM235.667 54.8636V44.3636H236.96V45.5866H237.094C237.18 45.4441 237.303 45.2685 237.462 45.0597C237.621 44.8509 237.844 44.6669 238.133 44.5078C238.421 44.3454 238.809 44.2642 239.296 44.2642C239.923 44.2642 240.479 44.4233 240.967 44.7415C241.454 45.0563 241.835 45.5088 242.11 46.0987C242.388 46.6854 242.528 47.3864 242.528 48.2017C242.528 49.017 242.39 49.7197 242.115 50.3097C241.84 50.8996 241.46 51.3554 240.977 51.6768C240.493 51.995 239.938 52.1541 239.311 52.1541C238.834 52.1541 238.448 52.0746 238.153 51.9155C237.861 51.7564 237.632 51.5724 237.467 51.3636C237.304 51.1515 237.18 50.9692 237.094 50.8168H236.999V54.8636H235.667ZM236.974 48.1818C236.974 48.7386 237.056 49.2292 237.218 49.6534C237.38 50.0743 237.616 50.4041 237.924 50.6428C238.236 50.8781 238.617 50.9957 239.067 50.9957C239.531 50.9957 239.921 50.8714 240.236 50.6229C240.551 50.3743 240.788 50.0379 240.947 49.6136C241.109 49.1861 241.19 48.7088 241.19 48.1818C241.19 47.6615 241.111 47.1941 240.952 46.7798C240.796 46.3622 240.561 46.0324 240.246 45.7905C239.931 45.5452 239.538 45.4226 239.067 45.4226C238.61 45.4226 238.226 45.5386 237.914 45.7706C237.606 45.9993 237.372 46.3208 237.213 46.7351C237.054 47.1494 236.974 47.6316 236.974 48.1818ZM247.504 52.1591C246.759 52.1591 246.117 51.9967 245.58 51.6719C245.043 51.3438 244.629 50.8864 244.337 50.2997C244.049 49.7098 243.905 49.022 243.905 48.2365C243.905 47.4543 244.049 46.7649 244.337 46.1683C244.629 45.5684 245.035 45.1011 245.555 44.7663C246.079 44.4316 246.691 44.2642 247.39 44.2642C247.804 44.2642 248.209 44.3338 248.603 44.473C249.001 44.6089 249.359 44.8277 249.677 45.1293C249.998 45.4276 250.252 45.8203 250.438 46.3075C250.626 46.7947 250.721 47.3897 250.721 48.0923V48.6044H244.74V47.5405H249.393C249.393 47.1295 249.311 46.7649 249.145 46.4467C248.982 46.1252 248.75 45.8717 248.449 45.6861C248.151 45.5005 247.799 45.4077 247.395 45.4077C246.951 45.4077 246.566 45.5154 246.241 45.7308C245.92 45.9463 245.671 46.228 245.496 46.576C245.32 46.924 245.232 47.2985 245.232 47.6996V48.4702C245.232 49.0137 245.327 49.4761 245.516 49.8572C245.708 50.2351 245.975 50.5234 246.316 50.7223C246.657 50.9179 247.055 51.0156 247.509 51.0156C247.804 51.0156 248.073 50.9742 248.315 50.8913C248.557 50.8052 248.764 50.6776 248.936 50.5085C249.112 50.3395 249.248 50.1274 249.344 49.8722L250.616 50.1605C250.5 50.5582 250.298 50.9079 250.01 51.2095C249.725 51.5078 249.369 51.7415 248.941 51.9105C248.517 52.0762 248.038 52.1591 247.504 52.1591ZM252.442 52V44.3636H253.775V47.625H254.52L257.155 44.3636H258.826L255.808 48.0625L258.866 52H257.185L254.784 48.8629H253.775V52H252.442ZM260.071 54.8636V44.3636H261.364V45.5866H261.498C261.584 45.4441 261.707 45.2685 261.866 45.0597C262.025 44.8509 262.249 44.6669 262.537 44.5078C262.825 44.3454 263.213 44.2642 263.7 44.2642C264.327 44.2642 264.884 44.4233 265.371 44.7415C265.858 45.0563 266.239 45.5088 266.514 46.0987C266.793 46.6854 266.932 47.3864 266.932 48.2017C266.932 49.017 266.794 49.7197 266.519 50.3097C266.244 50.8996 265.865 51.3554 265.381 51.6768C264.897 51.995 264.342 52.1541 263.715 52.1541C263.238 52.1541 262.852 52.0746 262.557 51.9155C262.265 51.7564 262.037 51.5724 261.871 51.3636C261.709 51.1515 261.584 50.9692 261.498 50.8168H261.404V54.8636H260.071ZM261.379 48.1818C261.379 48.7386 261.46 49.2292 261.622 49.6534C261.785 50.0743 262.02 50.4041 262.328 50.6428C262.64 50.8781 263.021 50.9957 263.472 50.9957C263.936 50.9957 264.325 50.8714 264.64 50.6229C264.955 50.3743 265.192 50.0379 265.351 49.6136C265.513 49.1861 265.595 48.7088 265.595 48.1818C265.595 47.6615 265.515 47.1941 265.356 46.7798C265.2 46.3622 264.965 46.0324 264.65 45.7905C264.335 45.5452 263.942 45.4226 263.472 45.4226C263.014 45.4226 262.63 45.5386 262.318 45.7706C262.01 45.9993 261.776 46.3208 261.617 46.7351C261.458 47.1494 261.379 47.6316 261.379 48.1818ZM269.726 47.0582H271.928C272.843 47.0582 273.544 47.2886 274.031 47.7493C274.522 48.2067 274.767 48.7917 274.767 49.5043C274.767 49.9749 274.658 50.3991 274.439 50.777C274.22 51.1515 273.899 51.4498 273.475 51.6719C273.054 51.8906 272.538 52 271.928 52H268.657V44.3636H269.975V50.8118H271.928C272.376 50.8118 272.742 50.6941 273.027 50.4588C273.312 50.2235 273.456 49.9235 273.46 49.5589C273.456 49.1712 273.312 48.8563 273.027 48.6143C272.742 48.3691 272.376 48.2464 271.928 48.2464H269.726V47.0582ZM275.916 52V44.3636H277.248V52H275.916ZM278.894 45.5518V44.3636H285.218V45.5518H282.717V52H281.404V45.5518H278.894ZM288.172 50.0909L291.697 44.3636H293.168V52H291.856V46.2678L288.351 52H286.854V44.3636H288.172V50.0909ZM299.809 52V45.5369H297.88C297.436 45.5369 297.088 45.6397 296.836 45.8452C296.584 46.0507 296.458 46.3291 296.458 46.6804C296.458 47.0251 296.573 47.2985 296.801 47.5007C297.033 47.7029 297.353 47.804 297.761 47.804H300.177V48.9574H297.761C297.224 48.9574 296.758 48.8646 296.364 48.679C295.973 48.4934 295.671 48.2299 295.459 47.8885C295.247 47.5438 295.142 47.1378 295.146 46.6705C295.142 46.1965 295.25 45.7872 295.469 45.4425C295.691 45.0978 296.008 44.8326 296.419 44.647C296.829 44.4581 297.317 44.3636 297.88 44.3636H301.067V52H299.809ZM294.758 52L296.921 48.1719H298.318L296.16 52H294.758Z" fill="black" fill-opacity="0.75"/>
<rect x="141.5" y="23.5" width="193" height="47" rx="23.5" stroke="black" stroke-opacity="0.75"/>
<rect y="87" width="114" height="48" rx="24" fill="#FBC72E"/>
<path d="M36.7628 107.011H38.483C39.2486 107.011 39.928 107.182 40.5213 107.523C41.1179 107.862 41.5852 108.334 41.9233 108.94C42.2614 109.547 42.4304 110.251 42.4304 111.053C42.4304 111.852 42.2614 112.555 41.9233 113.161C41.5852 113.768 41.1179 114.242 40.5213 114.583C39.928 114.924 39.2486 115.095 38.483 115.095H36.7628C35.9972 115.095 35.3161 114.926 34.7195 114.588C34.1262 114.25 33.6605 113.779 33.3224 113.176C32.9844 112.573 32.8153 111.87 32.8153 111.068C32.8153 110.266 32.9844 109.56 33.3224 108.95C33.6605 108.34 34.1262 107.865 34.7195 107.523C35.3161 107.182 35.9972 107.011 36.7628 107.011ZM36.7628 108.224C36.2093 108.224 35.7386 108.34 35.3509 108.572C34.9664 108.801 34.6731 109.129 34.4709 109.557C34.272 109.981 34.1726 110.485 34.1726 111.068C34.1726 111.645 34.2737 112.144 34.4759 112.565C34.678 112.986 34.9714 113.31 35.3558 113.539C35.7403 113.768 36.2093 113.882 36.7628 113.882H38.4879C39.0414 113.882 39.5104 113.768 39.8949 113.539C40.2794 113.307 40.571 112.981 40.7699 112.56C40.9688 112.135 41.0682 111.633 41.0682 111.053C41.0682 110.473 40.9688 109.973 40.7699 109.552C40.571 109.128 40.2794 108.801 39.8949 108.572C39.5104 108.34 39.0414 108.224 38.4879 108.224H36.7628ZM38.3139 105.639V116.418H36.9467V105.639H38.3139ZM47.5375 116.159C46.7917 116.159 46.1504 115.997 45.6135 115.672C45.0765 115.344 44.6622 114.886 44.3706 114.3C44.0822 113.71 43.938 113.022 43.938 112.237C43.938 111.454 44.0822 110.765 44.3706 110.168C44.6622 109.568 45.0682 109.101 45.5886 108.766C46.1123 108.432 46.7238 108.264 47.4231 108.264C47.8374 108.264 48.2418 108.334 48.6362 108.473C49.0339 108.609 49.3919 108.828 49.71 109.129C50.0315 109.428 50.2851 109.82 50.4707 110.308C50.6596 110.795 50.7541 111.39 50.7541 112.092V112.604H44.7733V111.54H49.4267C49.4267 111.129 49.3438 110.765 49.1781 110.447C49.0157 110.125 48.7837 109.872 48.4821 109.686C48.1838 109.5 47.8324 109.408 47.4281 109.408C46.984 109.408 46.5995 109.515 46.2747 109.731C45.9532 109.946 45.7046 110.228 45.5289 110.576C45.3533 110.924 45.2654 111.299 45.2654 111.7V112.47C45.2654 113.014 45.3599 113.476 45.5488 113.857C45.7411 114.235 46.0079 114.523 46.3493 114.722C46.6906 114.918 47.0884 115.016 47.5424 115.016C47.8374 115.016 48.1059 114.974 48.3478 114.891C48.5898 114.805 48.7969 114.678 48.9693 114.509C49.1449 114.339 49.2808 114.127 49.377 113.872L50.6497 114.161C50.5337 114.558 50.3315 114.908 50.0431 115.21C49.7581 115.508 49.4018 115.741 48.9743 115.911C48.55 116.076 48.0711 116.159 47.5375 116.159ZM52.4755 118.864V108.364H53.7681V109.587H53.9023C53.9885 109.444 54.1112 109.268 54.2702 109.06C54.4293 108.851 54.6531 108.667 54.9414 108.508C55.2298 108.345 55.6175 108.264 56.1048 108.264C56.7312 108.264 57.288 108.423 57.7752 108.741C58.2624 109.056 58.6436 109.509 58.9187 110.099C59.1971 110.685 59.3363 111.386 59.3363 112.202C59.3363 113.017 59.1987 113.72 58.9237 114.31C58.6486 114.9 58.2691 115.355 57.7852 115.677C57.3013 115.995 56.7461 116.154 56.1197 116.154C55.6424 116.154 55.2563 116.075 54.9613 115.915C54.6696 115.756 54.4409 115.572 54.2752 115.364C54.1128 115.152 53.9885 114.969 53.9023 114.817H53.8079V118.864H52.4755ZM53.783 112.182C53.783 112.739 53.8642 113.229 54.0266 113.653C54.189 114.074 54.4244 114.404 54.7326 114.643C55.0442 114.878 55.4253 114.996 55.8761 114.996C56.3401 114.996 56.7295 114.871 57.0444 114.623C57.3593 114.374 57.5962 114.038 57.7553 113.614C57.9177 113.186 57.9989 112.709 57.9989 112.182C57.9989 111.661 57.9194 111.194 57.7603 110.78C57.6045 110.362 57.3692 110.032 57.0543 109.79C56.7395 109.545 56.3467 109.423 55.8761 109.423C55.4187 109.423 55.0342 109.539 54.7227 109.771C54.4144 109.999 54.1808 110.321 54.0217 110.735C53.8626 111.149 53.783 111.632 53.783 112.182ZM65.2972 114.285L67.8626 108.364H69.0558L65.8093 116H64.7802L61.5934 108.364H62.7717L65.2972 114.285ZM62.3789 108.364V116H61.0614V108.364H62.3789ZM68.2305 116V108.364H69.543V116H68.2305ZM72.6713 111.058H74.8738C75.7885 111.058 76.4895 111.289 76.9767 111.749C77.4673 112.207 77.7125 112.792 77.7125 113.504C77.7125 113.975 77.6032 114.399 77.3844 114.777C77.1657 115.152 76.8442 115.45 76.4199 115.672C75.999 115.891 75.4836 116 74.8738 116H71.6025V108.364H72.9199V114.812H74.8738C75.3212 114.812 75.6874 114.694 75.9725 114.459C76.2575 114.223 76.4017 113.924 76.405 113.559C76.4017 113.171 76.2575 112.856 75.9725 112.614C75.6874 112.369 75.3212 112.246 74.8738 112.246H72.6713V111.058ZM78.861 116V108.364H80.1934V116H78.861Z" fill="black" fill-opacity="0.75"/>
<rect x="0.5" y="87.5" width="113" height="47" rx="23.5" stroke="black" stroke-opacity="0.75"/>
<rect x="130" y="87" width="220" height="48" rx="24" fill="#FBC72E"/>
<path d="M170.964 105.818V116H169.582V107.021H164.62V116H163.238V105.818H170.964ZM172.597 116V114.807H172.87C173.089 114.807 173.273 114.762 173.422 114.673C173.571 114.583 173.692 114.426 173.785 114.2C173.878 113.975 173.949 113.663 173.999 113.266C174.052 112.865 174.09 112.357 174.113 111.744L174.248 108.364H179.458V116H178.145V109.552H175.495L175.376 112.212C175.35 112.841 175.29 113.393 175.197 113.867C175.108 114.338 174.973 114.732 174.794 115.05C174.615 115.365 174.382 115.602 174.093 115.761C173.808 115.92 173.455 116 173.034 116H172.597ZM184.68 116.159C183.978 116.159 183.363 115.995 182.836 115.667C182.309 115.335 181.9 114.875 181.608 114.285C181.316 113.695 181.17 113.007 181.17 112.222C181.17 111.426 181.316 110.732 181.608 110.138C181.9 109.545 182.309 109.085 182.836 108.756C183.363 108.428 183.978 108.264 184.68 108.264C185.383 108.264 185.998 108.428 186.525 108.756C187.052 109.085 187.461 109.545 187.753 110.138C188.045 110.732 188.19 111.426 188.19 112.222C188.19 113.007 188.045 113.695 187.753 114.285C187.461 114.875 187.052 115.335 186.525 115.667C185.998 115.995 185.383 116.159 184.68 116.159ZM184.68 115.006C185.178 115.006 185.585 114.878 185.903 114.623C186.225 114.364 186.464 114.025 186.619 113.604C186.775 113.179 186.853 112.717 186.853 112.217C186.853 111.719 186.775 111.259 186.619 110.835C186.464 110.407 186.225 110.064 185.903 109.805C185.585 109.544 185.178 109.413 184.68 109.413C184.187 109.413 183.779 109.544 183.457 109.805C183.136 110.064 182.897 110.407 182.741 110.835C182.586 111.259 182.508 111.719 182.508 112.217C182.508 112.717 182.586 113.179 182.741 113.604C182.897 114.025 183.136 114.364 183.457 114.623C183.779 114.878 184.187 115.006 184.68 115.006ZM200.597 114.812L200.458 118.188H199.12V116H198.151V114.812H200.597ZM189.913 108.364H191.23V114.807H193.99V108.364H195.307V114.807H198.066V108.364H199.384V116H189.913V108.364ZM204.469 116.174C203.985 116.174 203.546 116.083 203.151 115.901C202.76 115.718 202.448 115.455 202.216 115.11C201.988 114.762 201.873 114.338 201.873 113.837C201.873 113.403 201.958 113.049 202.127 112.773C202.299 112.495 202.528 112.276 202.813 112.117C203.098 111.958 203.415 111.839 203.763 111.759C204.111 111.68 204.464 111.618 204.822 111.575C205.282 111.516 205.655 111.469 205.94 111.436C206.229 111.403 206.439 111.348 206.572 111.272C206.704 111.196 206.77 111.065 206.77 110.879V110.839C206.77 110.379 206.643 110.021 206.388 109.766C206.132 109.51 205.75 109.383 205.239 109.383C204.709 109.383 204.293 109.499 203.991 109.731C203.69 109.963 203.478 110.216 203.355 110.491L202.102 110.134C202.284 109.67 202.538 109.302 202.863 109.03C203.191 108.755 203.557 108.559 203.961 108.443C204.369 108.324 204.785 108.264 205.209 108.264C205.484 108.264 205.788 108.297 206.119 108.364C206.451 108.427 206.765 108.551 207.064 108.737C207.365 108.919 207.614 109.189 207.809 109.547C208.005 109.902 208.103 110.369 208.103 110.949V116H206.79V114.961H206.731C206.644 115.14 206.507 115.324 206.318 115.513C206.129 115.698 205.882 115.856 205.577 115.985C205.272 116.111 204.903 116.174 204.469 116.174ZM204.717 115.05C205.158 115.05 205.531 114.964 205.836 114.792C206.141 114.62 206.373 114.396 206.532 114.121C206.694 113.846 206.775 113.552 206.775 113.241V112.212C206.722 112.268 206.616 112.319 206.457 112.366C206.298 112.412 206.116 112.452 205.91 112.485C205.708 112.518 205.509 112.548 205.314 112.575C205.122 112.598 204.962 112.618 204.836 112.634C204.541 112.674 204.268 112.737 204.016 112.823C203.768 112.909 203.567 113.037 203.415 113.206C203.265 113.372 203.191 113.595 203.191 113.877C203.191 114.265 203.335 114.558 203.623 114.757C203.912 114.953 204.276 115.05 204.717 115.05ZM209.385 118.197V114.807H210.012C210.171 114.654 210.305 114.48 210.415 114.285C210.527 114.089 210.623 113.857 210.703 113.589C210.786 113.317 210.855 112.994 210.912 112.619C210.968 112.245 211.018 111.804 211.061 111.297L211.309 108.364H216.331V114.807H217.504V118.197H216.192V116H210.708V118.197H209.385ZM211.474 114.807H215.018V109.547H212.523L212.344 111.297C212.264 112.099 212.165 112.797 212.045 113.39C211.926 113.98 211.735 114.452 211.474 114.807ZM219.007 116V108.364H220.339V111.625H221.085L223.72 108.364H225.39L222.373 112.062L225.43 116H223.75L221.348 112.863H220.339V116H219.007ZM227.953 114.091L231.478 108.364H232.95V116H231.637V110.268L228.132 116H226.636V108.364H227.953V114.091ZM240.162 114.091L243.687 108.364H245.159V116H243.846V110.268L240.341 116H238.845V108.364H240.162V114.091ZM250.417 116V114.807H250.691C250.909 114.807 251.093 114.762 251.243 114.673C251.392 114.583 251.513 114.426 251.605 114.2C251.698 113.975 251.77 113.663 251.819 113.266C251.872 112.865 251.91 112.357 251.934 111.744L252.068 108.364H257.278V116H255.966V109.552H253.316L253.196 112.212C253.17 112.841 253.11 113.393 253.017 113.867C252.928 114.338 252.794 114.732 252.615 115.05C252.436 115.365 252.202 115.602 251.914 115.761C251.629 115.92 251.276 116 250.855 116H250.417ZM262.59 116.159C261.844 116.159 261.203 115.997 260.666 115.672C260.129 115.344 259.715 114.886 259.423 114.3C259.135 113.71 258.991 113.022 258.991 112.237C258.991 111.454 259.135 110.765 259.423 110.168C259.715 109.568 260.121 109.101 260.641 108.766C261.165 108.432 261.777 108.264 262.476 108.264C262.89 108.264 263.295 108.334 263.689 108.473C264.087 108.609 264.445 108.828 264.763 109.129C265.084 109.428 265.338 109.82 265.523 110.308C265.712 110.795 265.807 111.39 265.807 112.092V112.604H259.826V111.54H264.479C264.479 111.129 264.397 110.765 264.231 110.447C264.068 110.125 263.836 109.872 263.535 109.686C263.237 109.5 262.885 109.408 262.481 109.408C262.037 109.408 261.652 109.515 261.327 109.731C261.006 109.946 260.757 110.228 260.582 110.576C260.406 110.924 260.318 111.299 260.318 111.7V112.47C260.318 113.014 260.413 113.476 260.602 113.857C260.794 114.235 261.061 114.523 261.402 114.722C261.743 114.918 262.141 115.016 262.595 115.016C262.89 115.016 263.159 114.974 263.401 114.891C263.643 114.805 263.85 114.678 264.022 114.509C264.198 114.339 264.334 114.127 264.43 113.872L265.702 114.161C265.586 114.558 265.384 114.908 265.096 115.21C264.811 115.508 264.455 115.741 264.027 115.911C263.603 116.076 263.124 116.159 262.59 116.159ZM270.69 116.159C269.964 116.159 269.338 115.99 268.811 115.652C268.287 115.314 267.885 114.848 267.603 114.255C267.321 113.662 267.18 112.984 267.18 112.222C267.18 111.443 267.324 110.757 267.613 110.163C267.904 109.57 268.31 109.106 268.831 108.771C269.354 108.433 269.968 108.264 270.67 108.264C271.23 108.264 271.731 108.367 272.172 108.572C272.616 108.778 272.977 109.066 273.256 109.438C273.534 109.809 273.703 110.243 273.763 110.74H272.45C272.367 110.385 272.177 110.077 271.878 109.815C271.583 109.55 271.189 109.418 270.695 109.418C270.258 109.418 269.875 109.532 269.547 109.761C269.222 109.986 268.968 110.306 268.786 110.72C268.607 111.134 268.518 111.622 268.518 112.182C268.518 112.755 268.607 113.252 268.786 113.673C268.965 114.094 269.217 114.421 269.542 114.653C269.87 114.885 270.254 115.001 270.695 115.001C270.99 115.001 271.257 114.948 271.496 114.842C271.734 114.736 271.936 114.585 272.102 114.389C272.268 114.19 272.384 113.953 272.45 113.678H273.763C273.7 114.149 273.536 114.571 273.27 114.946C273.009 115.321 272.659 115.617 272.221 115.836C271.784 116.051 271.273 116.159 270.69 116.159ZM274.839 109.552V108.364H281.163V109.552H278.662V116H277.35V109.552H274.839ZM287.945 111.595V112.783H283.769V111.595H287.945ZM284.117 108.364V116H282.8V108.364H284.117ZM288.915 108.364V116H287.602V108.364H288.915ZM292.293 114.091L295.818 108.364H297.289V116H295.977V110.268L292.472 116H290.975V108.364H292.293V114.091ZM305.476 108.364V114.847H306.575V118.466H305.253V116H299.356V108.364H300.674V114.812H304.164V108.364H305.476ZM309.367 111.058H311.569C312.484 111.058 313.185 111.289 313.672 111.749C314.163 112.207 314.408 112.792 314.408 113.504C314.408 113.975 314.298 114.399 314.08 114.777C313.861 115.152 313.539 115.45 313.115 115.672C312.694 115.891 312.179 116 311.569 116H308.298V108.364H309.615V114.812H311.569C312.017 114.812 312.383 114.694 312.668 114.459C312.953 114.223 313.097 113.924 313.1 113.559C313.097 113.171 312.953 112.856 312.668 112.614C312.383 112.369 312.017 112.246 311.569 112.246H309.367V111.058ZM315.556 116V108.364H316.889V116H315.556Z" fill="black" fill-opacity="0.75"/>
<rect x="130.5" y="87.5" width="219" height="47" rx="23.5" stroke="black" stroke-opacity="0.75"/>
<rect y="151" width="188" height="48" rx="24" fill="#FBC72E"/>
<path d="M41.5007 173.065H40.1087C40.0424 172.723 39.9231 172.422 39.7507 172.16C39.5817 171.898 39.3729 171.678 39.1243 171.499C38.879 171.32 38.6056 171.185 38.304 171.096C38.0024 171.003 37.6875 170.957 37.3594 170.957C36.7562 170.957 36.2143 171.109 35.7337 171.414C35.2531 171.716 34.8719 172.161 34.5902 172.751C34.3118 173.338 34.1726 174.057 34.1726 174.909C34.1726 175.764 34.3118 176.487 34.5902 177.077C34.8719 177.663 35.2531 178.107 35.7337 178.409C36.2143 178.711 36.7545 178.862 37.3544 178.862C37.6858 178.862 38.0007 178.817 38.299 178.727C38.6006 178.634 38.8741 178.5 39.1193 178.325C39.3679 178.146 39.5767 177.927 39.7457 177.668C39.9181 177.406 40.0391 177.107 40.1087 176.768H41.5007C41.4145 177.282 41.2505 177.746 41.0085 178.161C40.7666 178.575 40.4616 178.929 40.0938 179.224C39.7292 179.519 39.3149 179.746 38.8509 179.906C38.3868 180.061 37.8864 180.139 37.3494 180.139C36.4744 180.139 35.6955 179.929 35.0128 179.508C34.33 179.084 33.7931 178.482 33.402 177.703C33.0109 176.921 32.8153 175.99 32.8153 174.909C32.8153 173.829 33.0109 172.897 33.402 172.115C33.7964 171.333 34.335 170.731 35.0178 170.31C35.7005 169.889 36.4777 169.679 37.3494 169.679C37.8764 169.679 38.3703 169.755 38.831 169.908C39.2917 170.06 39.706 170.282 40.0739 170.574C40.4451 170.866 40.7533 171.22 40.9986 171.638C41.2438 172.055 41.4112 172.531 41.5007 173.065ZM43.2743 180V172.364H46.4213C47.2632 172.364 47.931 172.549 48.4249 172.92C48.9187 173.288 49.1657 173.781 49.1657 174.397C49.1657 174.854 49.0248 175.212 48.7431 175.471C48.4647 175.726 48.1001 175.898 47.6493 175.988C47.9609 176.028 48.2542 176.129 48.5293 176.291C48.8077 176.45 49.0331 176.669 49.2054 176.947C49.3811 177.223 49.4689 177.556 49.4689 177.947C49.4689 178.344 49.3662 178.697 49.1607 179.006C48.9585 179.314 48.6652 179.558 48.2807 179.737C47.8996 179.912 47.4405 180 46.9036 180H43.2743ZM44.5321 178.842H46.9036C47.2881 178.842 47.5897 178.75 47.8084 178.568C48.0272 178.383 48.1365 178.131 48.1365 177.812C48.1365 177.441 48.0272 177.148 47.8084 176.933C47.5897 176.717 47.2881 176.609 46.9036 176.609H44.5321V178.842ZM44.5321 175.555H46.4263C46.7246 175.555 46.9798 175.514 47.1919 175.431C47.4074 175.348 47.5714 175.229 47.6841 175.073C47.8001 174.914 47.8581 174.728 47.8581 174.516C47.8581 174.208 47.7305 173.966 47.4753 173.79C47.2201 173.615 46.8688 173.527 46.4213 173.527H44.5321V175.555ZM55.7369 180V173.537H53.8079C53.3638 173.537 53.0157 173.64 52.7638 173.845C52.512 174.051 52.386 174.329 52.386 174.68C52.386 175.025 52.5004 175.299 52.729 175.501C52.9611 175.703 53.2809 175.804 53.6886 175.804H56.1048V176.957H53.6886C53.1516 176.957 52.686 176.865 52.2915 176.679C51.9004 176.493 51.5988 176.23 51.3867 175.888C51.1746 175.544 51.0702 175.138 51.0735 174.67C51.0702 174.196 51.1779 173.787 51.3967 173.442C51.6187 173.098 51.9353 172.833 52.3462 172.647C52.7572 172.458 53.2444 172.364 53.8079 172.364H56.9947V180H55.7369ZM50.6857 180L52.8484 176.172H54.2454L52.0877 180H50.6857ZM58.5893 178.016H59.9764C59.9996 178.344 60.1487 178.596 60.4238 178.772C60.6989 178.944 61.0569 179.031 61.4977 179.031C61.9484 179.031 62.3329 178.936 62.6511 178.747C62.9693 178.558 63.1284 178.258 63.1284 177.847C63.1284 177.602 63.0671 177.39 62.9444 177.211C62.8251 177.029 62.6561 176.886 62.4373 176.783C62.2186 176.681 61.9617 176.629 61.6667 176.629H60.389V175.521H61.6667C62.1109 175.521 62.4406 175.42 62.6561 175.217C62.8715 175.015 62.9792 174.763 62.9792 174.462C62.9792 174.134 62.8632 173.87 62.6312 173.671C62.3992 173.472 62.0727 173.373 61.6518 173.373C61.2276 173.373 60.8729 173.469 60.5879 173.661C60.3062 173.85 60.157 174.094 60.1404 174.392H58.7733C58.7865 173.974 58.9141 173.607 59.1561 173.288C59.4013 172.967 59.7328 172.717 60.1504 172.538C60.5713 172.355 61.0502 172.264 61.5872 172.264C62.1374 172.264 62.6146 172.357 63.019 172.543C63.4267 172.728 63.7399 172.982 63.9586 173.303C64.1807 173.621 64.2917 173.986 64.2917 174.397C64.2917 174.821 64.1691 175.168 63.9238 175.436C63.6786 175.701 63.3637 175.89 62.9792 176.003V176.082C63.2742 176.102 63.5311 176.193 63.7498 176.356C63.9719 176.518 64.1442 176.73 64.2669 176.992C64.3928 177.254 64.4558 177.547 64.4558 177.872C64.4558 178.339 64.3282 178.744 64.073 179.085C63.8211 179.427 63.4731 179.692 63.0289 179.881C62.5881 180.066 62.0843 180.159 61.5176 180.159C60.9641 180.159 60.4686 180.071 60.0311 179.896C59.5969 179.717 59.2505 179.466 58.992 179.145C58.7368 178.823 58.6026 178.447 58.5893 178.016ZM67.3691 178.091L70.894 172.364H72.3656V180H71.0531V174.268L67.5481 180H66.0517V172.364H67.3691V178.091ZM79.5781 178.091L83.103 172.364H84.5746V180H83.2621V174.268L79.7571 180H78.2607V172.364H79.5781V178.091ZM90.4696 182.864V172.364H91.7623V173.587H91.8965C91.9827 173.444 92.1053 173.268 92.2644 173.06C92.4235 172.851 92.6472 172.667 92.9355 172.508C93.2239 172.345 93.6117 172.264 94.0989 172.264C94.7253 172.264 95.2821 172.423 95.7694 172.741C96.2566 173.056 96.6377 173.509 96.9128 174.099C97.1912 174.685 97.3304 175.386 97.3304 176.202C97.3304 177.017 97.1929 177.72 96.9178 178.31C96.6427 178.9 96.2632 179.355 95.7793 179.677C95.2954 179.995 94.7402 180.154 94.1138 180.154C93.6365 180.154 93.2504 180.075 92.9554 179.915C92.6638 179.756 92.4351 179.572 92.2694 179.364C92.1069 179.152 91.9827 178.969 91.8965 178.817H91.802V182.864H90.4696ZM91.7772 176.182C91.7772 176.739 91.8584 177.229 92.0208 177.653C92.1832 178.074 92.4185 178.404 92.7267 178.643C93.0383 178.878 93.4194 178.996 93.8702 178.996C94.3342 178.996 94.7237 178.871 95.0385 178.623C95.3534 178.374 95.5904 178.038 95.7495 177.614C95.9119 177.186 95.9931 176.709 95.9931 176.182C95.9931 175.661 95.9135 175.194 95.7544 174.78C95.5987 174.362 95.3633 174.032 95.0485 173.79C94.7336 173.545 94.3408 173.423 93.8702 173.423C93.4128 173.423 93.0283 173.539 92.7168 173.771C92.4086 173.999 92.1749 174.321 92.0158 174.735C91.8567 175.149 91.7772 175.632 91.7772 176.182ZM101.293 180.174C100.809 180.174 100.37 180.083 99.9753 179.901C99.5842 179.718 99.2727 179.455 99.0407 179.11C98.812 178.762 98.6976 178.338 98.6976 177.837C98.6976 177.403 98.7821 177.049 98.9512 176.773C99.1235 176.495 99.3522 176.276 99.6373 176.117C99.9223 175.958 100.239 175.839 100.587 175.759C100.935 175.68 101.288 175.618 101.646 175.575C102.106 175.516 102.479 175.469 102.764 175.436C103.053 175.403 103.263 175.348 103.396 175.272C103.528 175.196 103.595 175.065 103.595 174.879V174.839C103.595 174.379 103.467 174.021 103.212 173.766C102.957 173.51 102.574 173.383 102.063 173.383C101.533 173.383 101.117 173.499 100.816 173.731C100.514 173.963 100.302 174.216 100.179 174.491L98.9263 174.134C99.1086 173.67 99.3622 173.302 99.687 173.03C100.015 172.755 100.381 172.559 100.786 172.443C101.193 172.324 101.609 172.264 102.034 172.264C102.309 172.264 102.612 172.297 102.943 172.364C103.275 172.427 103.59 172.551 103.888 172.737C104.19 172.919 104.438 173.189 104.634 173.547C104.829 173.902 104.927 174.369 104.927 174.949V180H103.615V178.961H103.555C103.469 179.14 103.331 179.324 103.142 179.513C102.953 179.698 102.706 179.856 102.401 179.985C102.097 180.111 101.727 180.174 101.293 180.174ZM101.541 179.05C101.982 179.05 102.355 178.964 102.66 178.792C102.965 178.62 103.197 178.396 103.356 178.121C103.518 177.846 103.6 177.552 103.6 177.241V176.212C103.547 176.268 103.441 176.319 103.281 176.366C103.122 176.412 102.94 176.452 102.735 176.485C102.532 176.518 102.334 176.548 102.138 176.575C101.946 176.598 101.787 176.618 101.661 176.634C101.366 176.674 101.092 176.737 100.84 176.823C100.592 176.909 100.391 177.037 100.239 177.206C100.09 177.372 100.015 177.595 100.015 177.877C100.015 178.265 100.159 178.558 100.448 178.757C100.736 178.953 101.101 179.05 101.541 179.05ZM110.147 180.159C109.421 180.159 108.795 179.99 108.268 179.652C107.744 179.314 107.342 178.848 107.06 178.255C106.778 177.662 106.637 176.984 106.637 176.222C106.637 175.443 106.781 174.757 107.07 174.163C107.361 173.57 107.767 173.106 108.288 172.771C108.811 172.433 109.425 172.264 110.127 172.264C110.687 172.264 111.188 172.367 111.629 172.572C112.073 172.778 112.434 173.066 112.713 173.438C112.991 173.809 113.16 174.243 113.22 174.74H111.907C111.824 174.385 111.634 174.077 111.335 173.815C111.04 173.55 110.646 173.418 110.152 173.418C109.715 173.418 109.332 173.532 109.004 173.761C108.679 173.986 108.425 174.306 108.243 174.72C108.064 175.134 107.975 175.622 107.975 176.182C107.975 176.755 108.064 177.252 108.243 177.673C108.422 178.094 108.674 178.421 108.999 178.653C109.327 178.885 109.711 179.001 110.152 179.001C110.447 179.001 110.714 178.948 110.953 178.842C111.191 178.736 111.393 178.585 111.559 178.389C111.725 178.19 111.841 177.953 111.907 177.678H113.22C113.157 178.149 112.993 178.571 112.727 178.946C112.466 179.321 112.116 179.617 111.678 179.836C111.241 180.051 110.731 180.159 110.147 180.159ZM114.874 180V172.364H120.994V180H119.676V173.552H116.186V180H114.874ZM126.225 180.159C125.523 180.159 124.908 179.995 124.381 179.667C123.854 179.335 123.445 178.875 123.153 178.285C122.861 177.695 122.715 177.007 122.715 176.222C122.715 175.426 122.861 174.732 123.153 174.138C123.445 173.545 123.854 173.085 124.381 172.756C124.908 172.428 125.523 172.264 126.225 172.264C126.928 172.264 127.543 172.428 128.07 172.756C128.597 173.085 129.006 173.545 129.298 174.138C129.589 174.732 129.735 175.426 129.735 176.222C129.735 177.007 129.589 177.695 129.298 178.285C129.006 178.875 128.597 179.335 128.07 179.667C127.543 179.995 126.928 180.159 126.225 180.159ZM126.225 179.006C126.722 179.006 127.13 178.878 127.448 178.623C127.77 178.364 128.008 178.025 128.164 177.604C128.32 177.179 128.398 176.717 128.398 176.217C128.398 175.719 128.32 175.259 128.164 174.835C128.008 174.407 127.77 174.064 127.448 173.805C127.13 173.544 126.722 173.413 126.225 173.413C125.731 173.413 125.324 173.544 125.002 173.805C124.681 174.064 124.442 174.407 124.286 174.835C124.131 175.259 124.053 175.719 124.053 176.217C124.053 176.717 124.131 177.179 124.286 177.604C124.442 178.025 124.681 178.364 125.002 178.623C125.324 178.878 125.731 179.006 126.225 179.006ZM131.458 182.864V172.364H132.751V173.587H132.885C132.971 173.444 133.094 173.268 133.253 173.06C133.412 172.851 133.635 172.667 133.924 172.508C134.212 172.345 134.6 172.264 135.087 172.264C135.714 172.264 136.27 172.423 136.758 172.741C137.245 173.056 137.626 173.509 137.901 174.099C138.18 174.685 138.319 175.386 138.319 176.202C138.319 177.017 138.181 177.72 137.906 178.31C137.631 178.9 137.251 179.355 136.768 179.677C136.284 179.995 135.729 180.154 135.102 180.154C134.625 180.154 134.239 180.075 133.944 179.915C133.652 179.756 133.423 179.572 133.258 179.364C133.095 179.152 132.971 178.969 132.885 178.817H132.79V182.864H131.458ZM132.765 176.182C132.765 176.739 132.847 177.229 133.009 177.653C133.171 178.074 133.407 178.404 133.715 178.643C134.027 178.878 134.408 178.996 134.858 178.996C135.323 178.996 135.712 178.871 136.027 178.623C136.342 178.374 136.579 178.038 136.738 177.614C136.9 177.186 136.981 176.709 136.981 176.182C136.981 175.661 136.902 175.194 136.743 174.78C136.587 174.362 136.352 174.032 136.037 173.79C135.722 173.545 135.329 173.423 134.858 173.423C134.401 173.423 134.017 173.539 133.705 173.771C133.397 173.999 133.163 174.321 133.004 174.735C132.845 175.149 132.765 175.632 132.765 176.182ZM140.044 180V172.364H141.376V175.625H142.122L144.757 172.364H146.427L143.41 176.062L146.467 180H144.787L142.385 176.863H141.376V180H140.044ZM148.99 178.091L152.515 172.364H153.987V180H152.674V174.268L149.169 180H147.673V172.364H148.99V178.091Z" fill="black" fill-opacity="0.75"/>
<rect x="0.5" y="151.5" width="187" height="47" rx="23.5" stroke="black" stroke-opacity="0.75"/>
<rect x="204" y="151" width="125" height="48" rx="24" fill="#FBC72E"/>
<path d="M244.964 169.818V180H243.582V171.021H238.62V180H237.238V169.818H244.964ZM247.233 182.864V172.364H248.526V173.587H248.66C248.746 173.444 248.869 173.268 249.028 173.06C249.187 172.851 249.411 172.667 249.699 172.508C249.988 172.345 250.375 172.264 250.863 172.264C251.489 172.264 252.046 172.423 252.533 172.741C253.02 173.056 253.401 173.509 253.676 174.099C253.955 174.685 254.094 175.386 254.094 176.202C254.094 177.017 253.957 177.72 253.681 178.31C253.406 178.9 253.027 179.355 252.543 179.677C252.059 179.995 251.504 180.154 250.877 180.154C250.4 180.154 250.014 180.075 249.719 179.915C249.427 179.756 249.199 179.572 249.033 179.364C248.871 179.152 248.746 178.969 248.66 178.817H248.566V182.864H247.233ZM248.541 176.182C248.541 176.739 248.622 177.229 248.784 177.653C248.947 178.074 249.182 178.404 249.49 178.643C249.802 178.878 250.183 178.996 250.634 178.996C251.098 178.996 251.487 178.871 251.802 178.623C252.117 178.374 252.354 178.038 252.513 177.614C252.676 177.186 252.757 176.709 252.757 176.182C252.757 175.661 252.677 175.194 252.518 174.78C252.362 174.362 252.127 174.032 251.812 173.79C251.497 173.545 251.105 173.423 250.634 173.423C250.176 173.423 249.792 173.539 249.48 173.771C249.172 173.999 248.939 174.321 248.779 174.735C248.62 175.149 248.541 175.632 248.541 176.182ZM258.981 180.159C258.279 180.159 257.664 179.995 257.137 179.667C256.61 179.335 256.2 178.875 255.909 178.285C255.617 177.695 255.471 177.007 255.471 176.222C255.471 175.426 255.617 174.732 255.909 174.138C256.2 173.545 256.61 173.085 257.137 172.756C257.664 172.428 258.279 172.264 258.981 172.264C259.684 172.264 260.299 172.428 260.826 172.756C261.353 173.085 261.762 173.545 262.054 174.138C262.345 174.732 262.491 175.426 262.491 176.222C262.491 177.007 262.345 177.695 262.054 178.285C261.762 178.875 261.353 179.335 260.826 179.667C260.299 179.995 259.684 180.159 258.981 180.159ZM258.981 179.006C259.478 179.006 259.886 178.878 260.204 178.623C260.526 178.364 260.764 178.025 260.92 177.604C261.076 177.179 261.154 176.717 261.154 176.217C261.154 175.719 261.076 175.259 260.92 174.835C260.764 174.407 260.526 174.064 260.204 173.805C259.886 173.544 259.478 173.413 258.981 173.413C258.487 173.413 258.08 173.544 257.758 173.805C257.437 174.064 257.198 174.407 257.042 174.835C256.886 175.259 256.809 175.719 256.809 176.217C256.809 176.717 256.886 177.179 257.042 177.604C257.198 178.025 257.437 178.364 257.758 178.623C258.08 178.878 258.487 179.006 258.981 179.006ZM269.016 172.364V173.552H265.536V180H264.214V172.364H269.016ZM273.432 180.159C272.73 180.159 272.115 179.995 271.588 179.667C271.061 179.335 270.652 178.875 270.36 178.285C270.068 177.695 269.922 177.007 269.922 176.222C269.922 175.426 270.068 174.732 270.36 174.138C270.652 173.545 271.061 173.085 271.588 172.756C272.115 172.428 272.73 172.264 273.432 172.264C274.135 172.264 274.75 172.428 275.277 172.756C275.804 173.085 276.213 173.545 276.505 174.138C276.796 174.732 276.942 175.426 276.942 176.222C276.942 177.007 276.796 177.695 276.505 178.285C276.213 178.875 275.804 179.335 275.277 179.667C274.75 179.995 274.135 180.159 273.432 180.159ZM273.432 179.006C273.93 179.006 274.337 178.878 274.655 178.623C274.977 178.364 275.215 178.025 275.371 177.604C275.527 177.179 275.605 176.717 275.605 176.217C275.605 175.719 275.527 175.259 275.371 174.835C275.215 174.407 274.977 174.064 274.655 173.805C274.337 173.544 273.93 173.413 273.432 173.413C272.939 173.413 272.531 173.544 272.209 173.805C271.888 174.064 271.649 174.407 271.493 174.835C271.338 175.259 271.26 175.719 271.26 176.217C271.26 176.717 271.338 177.179 271.493 177.604C271.649 178.025 271.888 178.364 272.209 178.623C272.531 178.878 272.939 179.006 273.432 179.006ZM283.811 175.595V176.783H279.634V175.595H283.811ZM279.982 172.364V180H278.665V172.364H279.982ZM284.78 172.364V180H283.468V172.364H284.78ZM287.91 175.058H290.112C291.027 175.058 291.728 175.289 292.215 175.749C292.706 176.207 292.951 176.792 292.951 177.504C292.951 177.975 292.841 178.399 292.623 178.777C292.404 179.152 292.082 179.45 291.658 179.672C291.237 179.891 290.722 180 290.112 180H286.841V172.364H288.158V178.812H290.112C290.559 178.812 290.926 178.694 291.211 178.459C291.496 178.223 291.64 177.924 291.643 177.559C291.64 177.171 291.496 176.856 291.211 176.614C290.926 176.369 290.559 176.246 290.112 176.246H287.91V175.058ZM294.099 180V172.364H295.432V180H294.099Z" fill="black" fill-opacity="0.75"/>
<rect x="204.5" y="151.5" width="124" height="47" rx="23.5" stroke="black" stroke-opacity="0.75"/>
</g>
<defs>
<clipPath id="clip0_1379_8934">
<rect width="367" height="175" fill="white" transform="translate(0 24)"/>
</clipPath>
<clipPath id="clip1_1379_8934">
<rect width="175" height="175" fill="white" transform="translate(0 24)"/>
</clipPath>
<clipPath id="clip2_1379_8934">
<rect width="175" height="175" fill="white" transform="translate(175 24)"/>
</clipPath>
<clipPath id="clip3_1379_8934">
<rect width="175" height="175" fill="white" transform="translate(350 24)"/>
</clipPath>
<clipPath id="clip4_1379_8934">
<rect width="350" height="176" fill="white" transform="translate(0 23)"/>
</clipPath>
</defs>
</svg>
