<svg width="368" height="288" viewBox="0 0 368 288" fill="none" xmlns="http://www.w3.org/2000/svg">
<g clip-path="url(#clip0_336_2714)">
<path d="M-145.339 85.2203L88.2203 -148.339M-96.1686 134.391L137.391 -99.1686M-46.9982 183.561L186.561 -49.9982M2.17216 232.731L235.731 -0.827835M51.3425 281.902L284.902 48.3425M-120.754 109.806L112.806 -123.754M-22.413 208.146L211.146 -25.413M-71.5834 158.976L161.976 -74.5834M26.7574 257.317L260.317 23.7574M75.9277 306.487L309.487 72.9277M-34.7056 195.854L198.854 -37.7056M-133.046 97.5129L100.513 -136.046M-83.876 146.683L149.683 -86.876M-10.1204 220.439L223.439 -13.1204M14.4648 245.024L248.024 11.4648M63.6351 294.194L297.194 60.6351M-108.461 122.098L125.098 -111.461M-59.2908 171.269L174.269 -62.2908M39.05 269.609L272.609 36.05M88.2203 318.78L321.78 85.2203" stroke="#FBCB37" stroke-opacity="0.25" stroke-width="4"/>
</g>
<path d="M175.5 288L175.5 27M367.5 288V27" stroke="black"/>
<g clip-path="url(#clip1_336_2714)">
<path d="M30.661 85.2203L264.22 -148.339M79.8314 134.391L313.391 -99.1686M129.002 183.561L362.561 -49.9982M178.172 232.731L411.731 -0.827835M227.343 281.902L460.902 48.3425M55.2462 109.806L288.806 -123.754M153.587 208.146L387.146 -25.413M104.417 158.976L337.976 -74.5834M202.757 257.317L436.317 23.7574M251.928 306.487L485.487 72.9277M141.294 195.854L374.854 -37.7056M42.9536 97.5129L276.513 -136.046M92.124 146.683L325.683 -86.876M165.88 220.439L399.439 -13.1204M190.465 245.024L424.024 11.4648M239.635 294.194L473.194 60.6351M67.5388 122.098L301.098 -111.461M116.709 171.269L350.269 -62.2908M215.05 269.609L448.609 36.05M264.22 318.78L497.78 85.2203" stroke="#FBCB37" stroke-opacity="0.25" stroke-width="4"/>
</g>
<defs>
<clipPath id="clip0_336_2714">
<rect width="176" height="176" fill="white"/>
</clipPath>
<clipPath id="clip1_336_2714">
<rect width="176" height="176" fill="white" transform="translate(176)"/>
</clipPath>
</defs>
</svg>
