<svg width="1133" height="356" viewBox="0 0 1133 356" fill="none" xmlns="http://www.w3.org/2000/svg">
<g clip-path="url(#clip0_1379_5030)">
<g clip-path="url(#clip1_1379_5030)">
<path d="M175 157L0 332M177 180L23 334M-2 309L152 155M177 205L48 334M-2 284L127 155M177 230L73 334M-2 259L102 155M177 255L98 334M-2 234L77 155M177 280L123 334M-2 209L52 155M177 305L148 334M-2 184L27 155M177 330L173 334M-2 159L2 155" stroke="#FBCB37" stroke-opacity="0.25" stroke-width="4"/>
</g>
<g clip-path="url(#clip2_1379_5030)">
<path d="M350 157L175 332M352 180L198 334M173 309L327 155M352 205L223 334M173 284L302 155M352 230L248 334M173 259L277 155M352 255L273 334M173 234L252 155M352 280L298 334M173 209L227 155M352 305L323 334M173 184L202 155M352 330L348 334M173 159L177 155" stroke="#FBCB37" stroke-opacity="0.25" stroke-width="4"/>
</g>
<g clip-path="url(#clip3_1379_5030)">
<path d="M525 157L350 332M527 180L373 334M348 309L502 155M527 205L398 334M348 284L477 155M527 230L423 334M348 259L452 155M527 255L448 334M348 234L427 155M527 280L473 334M348 209L402 155M527 305L498 334M348 184L377 155M527 330L523 334M348 159L352 155" stroke="#FBCB37" stroke-opacity="0.25" stroke-width="4"/>
</g>
<g clip-path="url(#clip4_1379_5030)">
<path d="M700 157L525 332M702 180L548 334M523 309L677 155M702 205L573 334M523 284L652 155M702 230L598 334M523 259L627 155M702 255L623 334M523 234L602 155M702 280L648 334M523 209L577 155M702 305L673 334M523 184L552 155M702 330L698 334M523 159L527 155" stroke="#FBCB37" stroke-opacity="0.25" stroke-width="4"/>
</g>
<g clip-path="url(#clip5_1379_5030)">
<path d="M875 157L700 332M877 180L723 334M698 309L852 155M877 205L748 334M698 284L827 155M877 230L773 334M698 259L802 155M877 255L798 334M698 234L777 155M877 280L823 334M698 209L752 155M877 305L848 334M698 184L727 155M877 330L873 334M698 159L702 155" stroke="#FBCB37" stroke-opacity="0.25" stroke-width="4"/>
</g>
<g clip-path="url(#clip6_1379_5030)">
<path d="M1050 157L875 332M1052 180L898 334M873 309L1027 155M1052 205L923 334M873 284L1002 155M1052 230L948 334M873 259L977 155M1052 255L973 334M873 234L952 155M1052 280L998 334M873 209L927 155M1052 305L1023 334M873 184L902 155M1052 330L1048 334M873 159L877 155" stroke="#FBCB37" stroke-opacity="0.25" stroke-width="4"/>
</g>
<g clip-path="url(#clip7_1379_5030)">
<path d="M1225 157L1050 332M1227 180L1073 334M1048 309L1202 155M1227 205L1098 334M1048 284L1177 155M1227 230L1123 334M1048 259L1152 155M1227 255L1148 334M1048 234L1127 155M1227 280L1173 334M1048 209L1102 155M1227 305L1198 334M1048 184L1077 155M1227 330L1223 334M1048 159L1052 155" stroke="#FBCB37" stroke-opacity="0.25" stroke-width="4"/>
</g>
</g>
<path d="M410.48 57.48C406.16 57.48 402.32 56.36 398.96 54.12C395.6 51.8267 392.96 48.5733 391.04 44.36C389.12 40.0933 388.16 34.9733 388.16 29C388.16 23.0267 389.12 17.9333 391.04 13.72C392.96 9.45333 395.6 6.2 398.96 3.96C402.32 1.66666 406.16 0.519998 410.48 0.519998C414.8 0.519998 418.64 1.66666 422 3.96C425.36 6.2 428 9.45333 429.92 13.72C431.893 17.9333 432.88 23.0267 432.88 29C432.88 34.9733 431.893 40.0933 429.92 44.36C428 48.5733 425.36 51.8267 422 54.12C418.64 56.36 414.8 57.48 410.48 57.48ZM410.48 52.2C413.787 52.2 416.667 51.32 419.12 49.56C421.573 47.7467 423.493 45.1333 424.88 41.72C426.267 38.2533 426.96 34.0133 426.96 29C426.96 23.9867 426.267 19.7733 424.88 16.36C423.493 12.8933 421.573 10.28 419.12 8.52C416.667 6.70666 413.787 5.8 410.48 5.8C407.28 5.8 404.427 6.70666 401.92 8.52C399.413 10.28 397.467 12.8933 396.08 16.36C394.693 19.7733 394 23.9867 394 29C394 34.0133 394.693 38.2533 396.08 41.72C397.467 45.1333 399.413 47.7467 401.92 49.56C404.427 51.32 407.28 52.2 410.48 52.2ZM457.068 57.48C453.014 57.48 449.174 56.84 445.548 55.56C441.974 54.2267 439.094 52.4667 436.908 50.28L439.708 45.72C441.521 47.5867 443.948 49.1333 446.988 50.36C450.081 51.5867 453.441 52.2 457.068 52.2C461.708 52.2 465.254 51.1867 467.708 49.16C470.214 47.1333 471.468 44.4133 471.468 41C471.468 37.5867 470.241 34.8667 467.788 32.84C465.388 30.8133 461.574 29.8 456.348 29.8H452.348V25.56L469.628 3.88L470.428 6.12H439.228V0.999996H475.228V5.08L457.948 26.76L455.148 24.92H457.307C464.028 24.92 469.041 26.4133 472.348 29.4C475.708 32.3867 477.388 36.2267 477.388 40.92C477.388 44.0667 476.641 46.8933 475.148 49.4C473.654 51.9067 471.388 53.88 468.348 55.32C465.361 56.76 461.601 57.48 457.068 57.48Z" fill="black"/>
<path d="M491.188 9V0.599999H492.46L496.144 6.732H495.46L499.084 0.599999H500.356L500.38 9H498.892L498.88 2.916H499.192L496.12 8.04H495.424L492.304 2.916H492.664V9H491.188ZM504.771 4.092H508.947V5.376H504.771V4.092ZM504.891 7.692H509.631V9H503.331V0.599999H509.463V1.908H504.891V7.692ZM515.834 9.12C515.194 9.12 514.598 9.016 514.046 8.808C513.502 8.592 513.026 8.292 512.618 7.908C512.218 7.516 511.906 7.056 511.682 6.528C511.458 6 511.346 5.424 511.346 4.8C511.346 4.176 511.458 3.6 511.682 3.072C511.906 2.544 512.222 2.088 512.63 1.704C513.038 1.312 513.514 1.012 514.058 0.804C514.602 0.588 515.198 0.48 515.846 0.48C516.534 0.48 517.162 0.6 517.73 0.84C518.298 1.072 518.778 1.42 519.17 1.884L518.162 2.832C517.858 2.504 517.518 2.26 517.142 2.1C516.766 1.932 516.358 1.848 515.918 1.848C515.478 1.848 515.074 1.92 514.706 2.064C514.346 2.208 514.03 2.412 513.758 2.676C513.494 2.94 513.286 3.252 513.134 3.612C512.99 3.972 512.918 4.368 512.918 4.8C512.918 5.232 512.99 5.628 513.134 5.988C513.286 6.348 513.494 6.66 513.758 6.924C514.03 7.188 514.346 7.392 514.706 7.536C515.074 7.68 515.478 7.752 515.918 7.752C516.358 7.752 516.766 7.672 517.142 7.512C517.518 7.344 517.858 7.092 518.162 6.756L519.17 7.716C518.778 8.172 518.298 8.52 517.73 8.76C517.162 9 516.53 9.12 515.834 9.12Z" fill="black"/>
<path d="M602.48 57.48C598.16 57.48 594.32 56.36 590.96 54.12C587.6 51.8267 584.96 48.5733 583.04 44.36C581.12 40.0933 580.16 34.9733 580.16 29C580.16 23.0267 581.12 17.9333 583.04 13.72C584.96 9.45333 587.6 6.2 590.96 3.96C594.32 1.66666 598.16 0.519998 602.48 0.519998C606.8 0.519998 610.64 1.66666 614 3.96C617.36 6.2 620 9.45333 621.92 13.72C623.893 17.9333 624.88 23.0267 624.88 29C624.88 34.9733 623.893 40.0933 621.92 44.36C620 48.5733 617.36 51.8267 614 54.12C610.64 56.36 606.8 57.48 602.48 57.48ZM602.48 52.2C605.787 52.2 608.667 51.32 611.12 49.56C613.573 47.7467 615.493 45.1333 616.88 41.72C618.267 38.2533 618.96 34.0133 618.96 29C618.96 23.9867 618.267 19.7733 616.88 16.36C615.493 12.8933 613.573 10.28 611.12 8.52C608.667 6.70666 605.787 5.8 602.48 5.8C599.28 5.8 596.427 6.70666 593.92 8.52C591.413 10.28 589.467 12.8933 588.08 16.36C586.693 19.7733 586 23.9867 586 29C586 34.0133 586.693 38.2533 588.08 41.72C589.467 45.1333 591.413 47.7467 593.92 49.56C596.427 51.32 599.28 52.2 602.48 52.2ZM632.169 42.28V38.12L661.849 0.999996H668.249L638.809 38.12L635.689 37.16H680.729V42.28H632.169ZM663.769 57V42.28L663.929 37.16V24.2H669.529V57H663.769Z" fill="black"/>
<path d="M691.188 9V0.599999H692.46L696.144 6.732H695.46L699.084 0.599999H700.356L700.38 9H698.892L698.88 2.916H699.192L696.12 8.04H695.424L692.304 2.916H692.664V9H691.188ZM704.771 4.092H708.947V5.376H704.771V4.092ZM704.891 7.692H709.631V9H703.331V0.599999H709.463V1.908H704.891V7.692ZM715.834 9.12C715.194 9.12 714.598 9.016 714.046 8.808C713.502 8.592 713.026 8.292 712.618 7.908C712.218 7.516 711.906 7.056 711.682 6.528C711.458 6 711.346 5.424 711.346 4.8C711.346 4.176 711.458 3.6 711.682 3.072C711.906 2.544 712.222 2.088 712.63 1.704C713.038 1.312 713.514 1.012 714.058 0.804C714.602 0.588 715.198 0.48 715.846 0.48C716.534 0.48 717.162 0.6 717.73 0.84C718.298 1.072 718.778 1.42 719.17 1.884L718.162 2.832C717.858 2.504 717.518 2.26 717.142 2.1C716.766 1.932 716.358 1.848 715.918 1.848C715.478 1.848 715.074 1.92 714.706 2.064C714.346 2.208 714.03 2.412 713.758 2.676C713.494 2.94 713.286 3.252 713.134 3.612C712.99 3.972 712.918 4.368 712.918 4.8C712.918 5.232 712.99 5.628 713.134 5.988C713.286 6.348 713.494 6.66 713.758 6.924C714.03 7.188 714.346 7.392 714.706 7.536C715.074 7.68 715.478 7.752 715.918 7.752C716.358 7.752 716.766 7.672 717.142 7.512C717.518 7.344 717.858 7.092 718.162 6.756L719.17 7.716C718.778 8.172 718.298 8.52 717.73 8.76C717.162 9 716.53 9.12 715.834 9.12Z" fill="black"/>
<path d="M26.48 57.48C22.16 57.48 18.32 56.36 14.96 54.12C11.6 51.8267 8.96 48.5733 7.04 44.36C5.12 40.0933 4.16 34.9733 4.16 29C4.16 23.0267 5.12 17.9333 7.04 13.72C8.96 9.45333 11.6 6.2 14.96 3.96C18.32 1.66666 22.16 0.519998 26.48 0.519998C30.8 0.519998 34.64 1.66666 38 3.96C41.36 6.2 44 9.45333 45.92 13.72C47.8933 17.9333 48.88 23.0267 48.88 29C48.88 34.9733 47.8933 40.0933 45.92 44.36C44 48.5733 41.36 51.8267 38 54.12C34.64 56.36 30.8 57.48 26.48 57.48ZM26.48 52.2C29.7867 52.2 32.6667 51.32 35.12 49.56C37.5733 47.7467 39.4933 45.1333 40.88 41.72C42.2667 38.2533 42.96 34.0133 42.96 29C42.96 23.9867 42.2667 19.7733 40.88 16.36C39.4933 12.8933 37.5733 10.28 35.12 8.52C32.6667 6.70666 29.7867 5.8 26.48 5.8C23.28 5.8 20.4267 6.70666 17.92 8.52C15.4133 10.28 13.4667 12.8933 12.08 16.36C10.6933 19.7733 10 23.9867 10 29C10 34.0133 10.6933 38.2533 12.08 41.72C13.4667 45.1333 15.4133 47.7467 17.92 49.56C20.4267 51.32 23.28 52.2 26.48 52.2ZM66.8888 57V3.4L69.4488 6.12H53.6888V0.999996H72.6488V57H66.8888Z" fill="black"/>
<path d="M91.188 9V0.599999H92.46L96.144 6.732H95.46L99.084 0.599999H100.356L100.38 9H98.892L98.88 2.916H99.192L96.12 8.04H95.424L92.304 2.916H92.664V9H91.188ZM104.771 4.092H108.947V5.376H104.771V4.092ZM104.891 7.692H109.631V9H103.331V0.599999H109.463V1.908H104.891V7.692ZM115.834 9.12C115.194 9.12 114.598 9.016 114.046 8.808C113.502 8.592 113.026 8.292 112.618 7.908C112.218 7.516 111.906 7.056 111.682 6.528C111.458 6 111.346 5.424 111.346 4.8C111.346 4.176 111.458 3.6 111.682 3.072C111.906 2.544 112.222 2.088 112.63 1.704C113.038 1.312 113.514 1.012 114.058 0.804C114.602 0.588 115.198 0.48 115.846 0.48C116.534 0.48 117.162 0.6 117.73 0.84C118.298 1.072 118.778 1.42 119.17 1.884L118.162 2.832C117.858 2.504 117.518 2.26 117.142 2.1C116.766 1.932 116.358 1.848 115.918 1.848C115.478 1.848 115.074 1.92 114.706 2.064C114.346 2.208 114.03 2.412 113.758 2.676C113.494 2.94 113.286 3.252 113.134 3.612C112.99 3.972 112.918 4.368 112.918 4.8C112.918 5.232 112.99 5.628 113.134 5.988C113.286 6.348 113.494 6.66 113.758 6.924C114.03 7.188 114.346 7.392 114.706 7.536C115.074 7.68 115.478 7.752 115.918 7.752C116.358 7.752 116.766 7.672 117.142 7.512C117.518 7.344 117.858 7.092 118.162 6.756L119.17 7.716C118.778 8.172 118.298 8.52 117.73 8.76C117.162 9 116.53 9.12 115.834 9.12Z" fill="black"/>
<path d="M218.48 57.48C214.16 57.48 210.32 56.36 206.96 54.12C203.6 51.8267 200.96 48.5733 199.04 44.36C197.12 40.0933 196.16 34.9733 196.16 29C196.16 23.0267 197.12 17.9333 199.04 13.72C200.96 9.45333 203.6 6.2 206.96 3.96C210.32 1.66666 214.16 0.519998 218.48 0.519998C222.8 0.519998 226.64 1.66666 230 3.96C233.36 6.2 236 9.45333 237.92 13.72C239.893 17.9333 240.88 23.0267 240.88 29C240.88 34.9733 239.893 40.0933 237.92 44.36C236 48.5733 233.36 51.8267 230 54.12C226.64 56.36 222.8 57.48 218.48 57.48ZM218.48 52.2C221.787 52.2 224.667 51.32 227.12 49.56C229.573 47.7467 231.493 45.1333 232.88 41.72C234.267 38.2533 234.96 34.0133 234.96 29C234.96 23.9867 234.267 19.7733 232.88 16.36C231.493 12.8933 229.573 10.28 227.12 8.52C224.667 6.70666 221.787 5.8 218.48 5.8C215.28 5.8 212.427 6.70666 209.92 8.52C207.413 10.28 205.467 12.8933 204.08 16.36C202.693 19.7733 202 23.9867 202 29C202 34.0133 202.693 38.2533 204.08 41.72C205.467 45.1333 207.413 47.7467 209.92 49.56C212.427 51.32 215.28 52.2 218.48 52.2ZM248.089 57V52.92L271.369 30.12C273.502 28.04 275.102 26.2267 276.169 24.68C277.235 23.08 277.955 21.5867 278.329 20.2C278.702 18.8133 278.889 17.5067 278.889 16.28C278.889 13.0267 277.769 10.4667 275.529 8.6C273.342 6.73333 270.089 5.8 265.769 5.8C262.462 5.8 259.529 6.30666 256.969 7.32C254.462 8.33333 252.302 9.90666 250.489 12.04L246.409 8.52C248.595 5.96 251.395 3.98666 254.809 2.6C258.222 1.21333 262.035 0.519998 266.249 0.519998C270.035 0.519998 273.315 1.13333 276.089 2.36C278.862 3.53333 280.995 5.26667 282.489 7.56C284.035 9.85333 284.809 12.5467 284.809 15.64C284.809 17.4533 284.542 19.24 284.009 21C283.529 22.76 282.622 24.6267 281.289 26.6C280.009 28.52 278.115 30.7067 275.609 33.16L254.249 54.12L252.649 51.88H287.369V57H248.089Z" fill="black"/>
<path d="M300.188 9V0.599999H301.46L305.144 6.732H304.46L308.084 0.599999H309.356L309.38 9H307.892L307.88 2.916H308.192L305.12 8.04H304.424L301.304 2.916H301.664V9H300.188ZM313.771 4.092H317.947V5.376H313.771V4.092ZM313.891 7.692H318.631V9H312.331V0.599999H318.463V1.908H313.891V7.692ZM324.834 9.12C324.194 9.12 323.598 9.016 323.046 8.808C322.502 8.592 322.026 8.292 321.618 7.908C321.218 7.516 320.906 7.056 320.682 6.528C320.458 6 320.346 5.424 320.346 4.8C320.346 4.176 320.458 3.6 320.682 3.072C320.906 2.544 321.222 2.088 321.63 1.704C322.038 1.312 322.514 1.012 323.058 0.804C323.602 0.588 324.198 0.48 324.846 0.48C325.534 0.48 326.162 0.6 326.73 0.84C327.298 1.072 327.778 1.42 328.17 1.884L327.162 2.832C326.858 2.504 326.518 2.26 326.142 2.1C325.766 1.932 325.358 1.848 324.918 1.848C324.478 1.848 324.074 1.92 323.706 2.064C323.346 2.208 323.03 2.412 322.758 2.676C322.494 2.94 322.286 3.252 322.134 3.612C321.99 3.972 321.918 4.368 321.918 4.8C321.918 5.232 321.99 5.628 322.134 5.988C322.286 6.348 322.494 6.66 322.758 6.924C323.03 7.188 323.346 7.392 323.706 7.536C324.074 7.68 324.478 7.752 324.918 7.752C325.358 7.752 325.766 7.672 326.142 7.512C326.518 7.344 326.858 7.092 327.162 6.756L328.17 7.716C327.778 8.172 327.298 8.52 326.73 8.76C326.162 9 325.53 9.12 324.834 9.12Z" fill="black"/>
<path d="M175 356L175 1M367.5 356V1M560 356V1" stroke="black"/>
<g filter="url(#filter0_b_1379_5030)">
<rect y="284" width="194" height="48" rx="24" fill="#FBCB37"/>
<path d="M33.1733 313V302.818H39.4226V304.026H34.5604V307.009H36.9915C37.7339 307.009 38.362 307.13 38.8757 307.372C39.3928 307.614 39.7855 307.955 40.054 308.396C40.3258 308.837 40.4616 309.357 40.4616 309.957C40.4616 310.554 40.3258 311.081 40.054 311.538C39.7855 311.996 39.3928 312.354 38.8757 312.612C38.362 312.871 37.7339 313 36.9915 313H33.1733ZM34.5604 311.817H36.9915C37.4422 311.817 37.8234 311.727 38.1349 311.548C38.4498 311.369 38.6884 311.137 38.8509 310.852C39.0133 310.564 39.0945 310.259 39.0945 309.938C39.0945 309.464 38.9122 309.056 38.5476 308.714C38.1863 308.373 37.6676 308.202 36.9915 308.202H34.5604V311.817ZM44.4725 313.174C43.9886 313.174 43.5494 313.083 43.155 312.901C42.7639 312.718 42.4524 312.455 42.2203 312.11C41.9917 311.762 41.8773 311.338 41.8773 310.837C41.8773 310.403 41.9618 310.049 42.1309 309.773C42.3032 309.495 42.5319 309.276 42.8169 309.117C43.102 308.958 43.4185 308.839 43.7665 308.759C44.1145 308.68 44.4675 308.618 44.8255 308.575C45.2862 308.516 45.659 308.469 45.9441 308.436C46.2324 308.403 46.4429 308.348 46.5755 308.272C46.708 308.196 46.7743 308.065 46.7743 307.879V307.839C46.7743 307.379 46.6467 307.021 46.3915 306.766C46.1363 306.51 45.7535 306.383 45.2431 306.383C44.7128 306.383 44.2968 306.499 43.9952 306.731C43.6936 306.963 43.4815 307.216 43.3588 307.491L42.106 307.134C42.2883 306.67 42.5418 306.302 42.8667 306.03C43.1948 305.755 43.561 305.559 43.9654 305.443C44.373 305.324 44.789 305.264 45.2132 305.264C45.4883 305.264 45.7916 305.297 46.123 305.364C46.4545 305.427 46.7694 305.551 47.0676 305.737C47.3693 305.919 47.6178 306.189 47.8134 306.547C48.0089 306.902 48.1067 307.369 48.1067 307.949V313H46.7942V311.961H46.7346C46.6484 312.14 46.5108 312.324 46.3219 312.513C46.133 312.698 45.8861 312.856 45.5811 312.985C45.2762 313.111 44.9067 313.174 44.4725 313.174ZM44.7211 312.05C45.1619 312.05 45.5347 311.964 45.8397 311.792C46.1446 311.62 46.3766 311.396 46.5357 311.121C46.6981 310.846 46.7793 310.552 46.7793 310.241V309.212C46.7263 309.268 46.6202 309.319 46.4611 309.366C46.302 309.412 46.1197 309.452 45.9142 309.485C45.7121 309.518 45.5132 309.548 45.3176 309.575C45.1254 309.598 44.9663 309.618 44.8404 309.634C44.5454 309.674 44.272 309.737 44.0201 309.823C43.7715 309.909 43.571 310.037 43.4185 310.206C43.2694 310.372 43.1948 310.595 43.1948 310.877C43.1948 311.265 43.339 311.558 43.6273 311.757C43.9157 311.953 44.2802 312.05 44.7211 312.05ZM49.5286 313V311.807H49.802C50.0208 311.807 50.2047 311.762 50.3539 311.673C50.503 311.583 50.624 311.426 50.7168 311.2C50.8096 310.975 50.8809 310.663 50.9306 310.266C50.9836 309.865 51.0217 309.357 51.0449 308.744L51.1792 305.364H56.3894V313H55.0769V306.552H52.427L52.3077 309.212C52.2812 309.841 52.2215 310.393 52.1287 310.867C52.0392 311.338 51.905 311.732 51.726 312.05C51.5471 312.365 51.3134 312.602 51.025 312.761C50.74 312.92 50.387 313 49.9661 313H49.5286ZM58.4501 313V305.364H59.7825V308.625H60.5282L63.1632 305.364H64.8336L61.8159 309.062L64.8734 313H63.193L60.7917 309.863H59.7825V313H58.4501ZM67.3965 311.091L70.9213 305.364H72.3929V313H71.0804V307.268L67.5755 313H66.079V305.364H67.3965V311.091ZM78.288 313V305.364H84.408V313H83.0906V306.552H79.6005V313H78.288ZM89.7289 313.159C88.9831 313.159 88.3418 312.997 87.8049 312.672C87.2679 312.344 86.8536 311.886 86.562 311.3C86.2736 310.71 86.1294 310.022 86.1294 309.237C86.1294 308.454 86.2736 307.765 86.562 307.168C86.8536 306.568 87.2596 306.101 87.78 305.766C88.3037 305.432 88.9152 305.264 89.6145 305.264C90.0288 305.264 90.4332 305.334 90.8276 305.473C91.2253 305.609 91.5833 305.828 91.9015 306.129C92.223 306.428 92.4765 306.82 92.6621 307.308C92.851 307.795 92.9455 308.39 92.9455 309.092V309.604H86.9647V308.54H91.6181C91.6181 308.129 91.5352 307.765 91.3695 307.447C91.2071 307.125 90.9751 306.872 90.6735 306.686C90.3752 306.5 90.0239 306.408 89.6195 306.408C89.1754 306.408 88.7909 306.515 88.4661 306.731C88.1446 306.946 87.896 307.228 87.7203 307.576C87.5447 307.924 87.4569 308.299 87.4569 308.7V309.47C87.4569 310.014 87.5513 310.476 87.7402 310.857C87.9325 311.235 88.1993 311.523 88.5407 311.722C88.882 311.918 89.2798 312.016 89.7338 312.016C90.0288 312.016 90.2973 311.974 90.5392 311.891C90.7812 311.805 90.9883 311.678 91.1607 311.509C91.3364 311.339 91.4722 311.127 91.5684 310.872L92.8411 311.161C92.7251 311.558 92.5229 311.908 92.2346 312.21C91.9495 312.508 91.5932 312.741 91.1657 312.911C90.7414 313.076 90.2625 313.159 89.7289 313.159ZM94.6669 315.864V305.364H95.9595V306.587H96.0938C96.1799 306.444 96.3026 306.268 96.4616 306.06C96.6207 305.851 96.8445 305.667 97.1328 305.508C97.4212 305.345 97.8089 305.264 98.2962 305.264C98.9226 305.264 99.4794 305.423 99.9666 305.741C100.454 306.056 100.835 306.509 101.11 307.099C101.388 307.685 101.528 308.386 101.528 309.202C101.528 310.017 101.39 310.72 101.115 311.31C100.84 311.9 100.46 312.355 99.9766 312.677C99.4927 312.995 98.9375 313.154 98.3111 313.154C97.8338 313.154 97.4477 313.075 97.1527 312.915C96.861 312.756 96.6323 312.572 96.4666 312.364C96.3042 312.152 96.1799 311.969 96.0938 311.817H95.9993V315.864H94.6669ZM95.9744 309.182C95.9744 309.739 96.0556 310.229 96.218 310.653C96.3804 311.074 96.6158 311.404 96.924 311.643C97.2356 311.878 97.6167 311.996 98.0675 311.996C98.5315 311.996 98.9209 311.871 99.2358 311.623C99.5507 311.374 99.7876 311.038 99.9467 310.614C100.109 310.186 100.19 309.709 100.19 309.182C100.19 308.661 100.111 308.194 99.9517 307.78C99.7959 307.362 99.5606 307.032 99.2457 306.79C98.9309 306.545 98.5381 306.423 98.0675 306.423C97.6101 306.423 97.2256 306.539 96.9141 306.771C96.6058 306.999 96.3722 307.321 96.2131 307.735C96.054 308.149 95.9744 308.632 95.9744 309.182ZM106.504 313.159C105.759 313.159 105.117 312.997 104.58 312.672C104.043 312.344 103.629 311.886 103.337 311.3C103.049 310.71 102.905 310.022 102.905 309.237C102.905 308.454 103.049 307.765 103.337 307.168C103.629 306.568 104.035 306.101 104.555 305.766C105.079 305.432 105.691 305.264 106.39 305.264C106.804 305.264 107.209 305.334 107.603 305.473C108.001 305.609 108.359 305.828 108.677 306.129C108.998 306.428 109.252 306.82 109.438 307.308C109.626 307.795 109.721 308.39 109.721 309.092V309.604H103.74V308.54H108.393C108.393 308.129 108.311 307.765 108.145 307.447C107.982 307.125 107.75 306.872 107.449 306.686C107.151 306.5 106.799 306.408 106.395 306.408C105.951 306.408 105.566 306.515 105.241 306.731C104.92 306.946 104.671 307.228 104.496 307.576C104.32 307.924 104.232 308.299 104.232 308.7V309.47C104.232 310.014 104.327 310.476 104.516 310.857C104.708 311.235 104.975 311.523 105.316 311.722C105.657 311.918 106.055 312.016 106.509 312.016C106.804 312.016 107.073 311.974 107.315 311.891C107.557 311.805 107.764 311.678 107.936 311.509C108.112 311.339 108.248 311.127 108.344 310.872L109.616 311.161C109.5 311.558 109.298 311.908 109.01 312.21C108.725 312.508 108.369 312.741 107.941 312.911C107.517 313.076 107.038 313.159 106.504 313.159ZM111.442 313V305.364H112.775V308.625H113.52L116.155 305.364H117.826L114.808 309.062L117.866 313H116.185L113.784 309.863H112.775V313H111.442ZM119.071 315.864V305.364H120.364V306.587H120.498C120.584 306.444 120.707 306.268 120.866 306.06C121.025 305.851 121.249 305.667 121.537 305.508C121.825 305.345 122.213 305.264 122.7 305.264C123.327 305.264 123.884 305.423 124.371 305.741C124.858 306.056 125.239 306.509 125.514 307.099C125.793 307.685 125.932 308.386 125.932 309.202C125.932 310.017 125.794 310.72 125.519 311.31C125.244 311.9 124.865 312.355 124.381 312.677C123.897 312.995 123.342 313.154 122.715 313.154C122.238 313.154 121.852 313.075 121.557 312.915C121.265 312.756 121.037 312.572 120.871 312.364C120.709 312.152 120.584 311.969 120.498 311.817H120.404V315.864H119.071ZM120.379 309.182C120.379 309.739 120.46 310.229 120.622 310.653C120.785 311.074 121.02 311.404 121.328 311.643C121.64 311.878 122.021 311.996 122.472 311.996C122.936 311.996 123.325 311.871 123.64 311.623C123.955 311.374 124.192 311.038 124.351 310.614C124.513 310.186 124.595 309.709 124.595 309.182C124.595 308.661 124.515 308.194 124.356 307.78C124.2 307.362 123.965 307.032 123.65 306.79C123.335 306.545 122.942 306.423 122.472 306.423C122.014 306.423 121.63 306.539 121.318 306.771C121.01 306.999 120.776 307.321 120.617 307.735C120.458 308.149 120.379 308.632 120.379 309.182ZM128.726 308.058H130.928C131.843 308.058 132.544 308.289 133.031 308.749C133.522 309.207 133.767 309.792 133.767 310.504C133.767 310.975 133.658 311.399 133.439 311.777C133.22 312.152 132.899 312.45 132.475 312.672C132.054 312.891 131.538 313 130.928 313H127.657V305.364H128.975V311.812H130.928C131.376 311.812 131.742 311.694 132.027 311.459C132.312 311.223 132.456 310.924 132.46 310.559C132.456 310.171 132.312 309.856 132.027 309.614C131.742 309.369 131.376 309.246 130.928 309.246H128.726V308.058ZM134.916 313V305.364H136.248V313H134.916ZM137.894 306.552V305.364H144.218V306.552H141.717V313H140.404V306.552H137.894ZM147.172 311.091L150.697 305.364H152.168V313H150.856V307.268L147.351 313H145.854V305.364H147.172V311.091ZM158.809 313V306.537H156.88C156.436 306.537 156.088 306.64 155.836 306.845C155.584 307.051 155.458 307.329 155.458 307.68C155.458 308.025 155.573 308.299 155.801 308.501C156.033 308.703 156.353 308.804 156.761 308.804H159.177V309.957H156.761C156.224 309.957 155.758 309.865 155.364 309.679C154.973 309.493 154.671 309.23 154.459 308.888C154.247 308.544 154.142 308.138 154.146 307.67C154.142 307.196 154.25 306.787 154.469 306.442C154.691 306.098 155.008 305.833 155.419 305.647C155.829 305.458 156.317 305.364 156.88 305.364H160.067V313H158.809ZM153.758 313L155.921 309.172H157.318L155.16 313H153.758Z" fill="black" fill-opacity="0.75"/>
<rect x="0.5" y="284.5" width="193" height="47" rx="23.5" stroke="black" stroke-opacity="0.75"/>
</g>
<g filter="url(#filter1_b_1379_5030)">
<rect x="210" y="284" width="125" height="48" rx="24" fill="#FBCB37"/>
<path d="M249.189 313L245.729 308.381H244.56V313H243.173V302.818H244.56V307.173H245.082L249.04 302.818H250.715L246.624 307.332L250.859 313H249.189ZM254.823 313.159C254.12 313.159 253.506 312.995 252.979 312.667C252.452 312.335 252.042 311.875 251.751 311.285C251.459 310.695 251.313 310.007 251.313 309.222C251.313 308.426 251.459 307.732 251.751 307.138C252.042 306.545 252.452 306.085 252.979 305.756C253.506 305.428 254.12 305.264 254.823 305.264C255.526 305.264 256.14 305.428 256.667 305.756C257.194 306.085 257.604 306.545 257.895 307.138C258.187 307.732 258.333 308.426 258.333 309.222C258.333 310.007 258.187 310.695 257.895 311.285C257.604 311.875 257.194 312.335 256.667 312.667C256.14 312.995 255.526 313.159 254.823 313.159ZM254.823 312.006C255.32 312.006 255.728 311.878 256.046 311.623C256.367 311.364 256.606 311.025 256.762 310.604C256.918 310.179 256.996 309.717 256.996 309.217C256.996 308.719 256.918 308.259 256.762 307.835C256.606 307.407 256.367 307.064 256.046 306.805C255.728 306.544 255.32 306.413 254.823 306.413C254.329 306.413 253.921 306.544 253.6 306.805C253.278 307.064 253.04 307.407 252.884 307.835C252.728 308.259 252.65 308.719 252.65 309.217C252.65 309.717 252.728 310.179 252.884 310.604C253.04 311.025 253.278 311.364 253.6 311.623C253.921 311.878 254.329 312.006 254.823 312.006ZM259.419 313V311.807H259.693C259.911 311.807 260.095 311.762 260.244 311.673C260.394 311.583 260.515 311.426 260.607 311.2C260.7 310.975 260.771 310.663 260.821 310.266C260.874 309.865 260.912 309.357 260.936 308.744L261.07 305.364H266.28V313H264.968V306.552H262.318L262.198 309.212C262.172 309.841 262.112 310.393 262.019 310.867C261.93 311.338 261.796 311.732 261.617 312.05C261.438 312.365 261.204 312.602 260.916 312.761C260.631 312.92 260.278 313 259.857 313H259.419ZM271.503 313.159C270.8 313.159 270.185 312.995 269.658 312.667C269.131 312.335 268.722 311.875 268.43 311.285C268.139 310.695 267.993 310.007 267.993 309.222C267.993 308.426 268.139 307.732 268.43 307.138C268.722 306.545 269.131 306.085 269.658 305.756C270.185 305.428 270.8 305.264 271.503 305.264C272.205 305.264 272.82 305.428 273.347 305.756C273.874 306.085 274.283 306.545 274.575 307.138C274.867 307.732 275.013 308.426 275.013 309.222C275.013 310.007 274.867 310.695 274.575 311.285C274.283 311.875 273.874 312.335 273.347 312.667C272.82 312.995 272.205 313.159 271.503 313.159ZM271.503 312.006C272 312.006 272.407 311.878 272.726 311.623C273.047 311.364 273.286 311.025 273.442 310.604C273.597 310.179 273.675 309.717 273.675 309.217C273.675 308.719 273.597 308.259 273.442 307.835C273.286 307.407 273.047 307.064 272.726 306.805C272.407 306.544 272 306.413 271.503 306.413C271.009 306.413 270.601 306.544 270.28 306.805C269.958 307.064 269.72 307.407 269.564 307.835C269.408 308.259 269.33 308.719 269.33 309.217C269.33 309.717 269.408 310.179 269.564 310.604C269.72 311.025 269.958 311.364 270.28 311.623C270.601 311.878 271.009 312.006 271.503 312.006ZM281.881 308.595V309.783H277.705V308.595H281.881ZM278.053 305.364V313H276.735V305.364H278.053ZM282.85 305.364V313H281.538V305.364H282.85ZM290.057 308.595V309.783H285.881V308.595H290.057ZM286.229 305.364V313H284.911V305.364H286.229ZM291.026 305.364V313H289.714V305.364H291.026ZM294.156 308.058H296.358C297.273 308.058 297.974 308.289 298.461 308.749C298.952 309.207 299.197 309.792 299.197 310.504C299.197 310.975 299.088 311.399 298.869 311.777C298.65 312.152 298.329 312.45 297.904 312.672C297.483 312.891 296.968 313 296.358 313H293.087V305.364H294.404V311.812H296.358C296.806 311.812 297.172 311.694 297.457 311.459C297.742 311.223 297.886 310.924 297.889 310.559C297.886 310.171 297.742 309.856 297.457 309.614C297.172 309.369 296.806 309.246 296.358 309.246H294.156V308.058ZM300.345 313V305.364H301.678V313H300.345Z" fill="black" fill-opacity="0.75"/>
<rect x="210.5" y="284.5" width="124" height="47" rx="23.5" stroke="black" stroke-opacity="0.75"/>
</g>
<g filter="url(#filter2_b_1379_5030)">
<rect x="351" y="284" width="114" height="48" rx="24" fill="#FBCB37"/>
<path d="M387.763 304.011H389.483C390.249 304.011 390.928 304.182 391.521 304.523C392.118 304.862 392.585 305.334 392.923 305.94C393.261 306.547 393.43 307.251 393.43 308.053C393.43 308.852 393.261 309.555 392.923 310.161C392.585 310.768 392.118 311.242 391.521 311.583C390.928 311.924 390.249 312.095 389.483 312.095H387.763C386.997 312.095 386.316 311.926 385.719 311.588C385.126 311.25 384.661 310.779 384.322 310.176C383.984 309.573 383.815 308.87 383.815 308.068C383.815 307.266 383.984 306.56 384.322 305.95C384.661 305.34 385.126 304.865 385.719 304.523C386.316 304.182 386.997 304.011 387.763 304.011ZM387.763 305.224C387.209 305.224 386.739 305.34 386.351 305.572C385.966 305.801 385.673 306.129 385.471 306.557C385.272 306.981 385.173 307.485 385.173 308.068C385.173 308.645 385.274 309.144 385.476 309.565C385.678 309.986 385.971 310.31 386.356 310.539C386.74 310.768 387.209 310.882 387.763 310.882H389.488C390.041 310.882 390.51 310.768 390.895 310.539C391.279 310.307 391.571 309.981 391.77 309.56C391.969 309.135 392.068 308.633 392.068 308.053C392.068 307.473 391.969 306.973 391.77 306.552C391.571 306.128 391.279 305.801 390.895 305.572C390.51 305.34 390.041 305.224 389.488 305.224H387.763ZM389.314 302.639V313.418H387.947V302.639H389.314ZM398.537 313.159C397.792 313.159 397.15 312.997 396.613 312.672C396.077 312.344 395.662 311.886 395.371 311.3C395.082 310.71 394.938 310.022 394.938 309.237C394.938 308.454 395.082 307.765 395.371 307.168C395.662 306.568 396.068 306.101 396.589 305.766C397.112 305.432 397.724 305.264 398.423 305.264C398.837 305.264 399.242 305.334 399.636 305.473C400.034 305.609 400.392 305.828 400.71 306.129C401.032 306.428 401.285 306.82 401.471 307.308C401.66 307.795 401.754 308.39 401.754 309.092V309.604H395.773V308.54H400.427C400.427 308.129 400.344 307.765 400.178 307.447C400.016 307.125 399.784 306.872 399.482 306.686C399.184 306.5 398.832 306.408 398.428 306.408C397.984 306.408 397.599 306.515 397.275 306.731C396.953 306.946 396.705 307.228 396.529 307.576C396.353 307.924 396.265 308.299 396.265 308.7V309.47C396.265 310.014 396.36 310.476 396.549 310.857C396.741 311.235 397.008 311.523 397.349 311.722C397.691 311.918 398.088 312.016 398.542 312.016C398.837 312.016 399.106 311.974 399.348 311.891C399.59 311.805 399.797 311.678 399.969 311.509C400.145 311.339 400.281 311.127 400.377 310.872L401.65 311.161C401.534 311.558 401.331 311.908 401.043 312.21C400.758 312.508 400.402 312.741 399.974 312.911C399.55 313.076 399.071 313.159 398.537 313.159ZM403.475 315.864V305.364H404.768V306.587H404.902C404.989 306.444 405.111 306.268 405.27 306.06C405.429 305.851 405.653 305.667 405.941 305.508C406.23 305.345 406.618 305.264 407.105 305.264C407.731 305.264 408.288 305.423 408.775 305.741C409.262 306.056 409.644 306.509 409.919 307.099C410.197 307.685 410.336 308.386 410.336 309.202C410.336 310.017 410.199 310.72 409.924 311.31C409.649 311.9 409.269 312.355 408.785 312.677C408.301 312.995 407.746 313.154 407.12 313.154C406.642 313.154 406.256 313.075 405.961 312.915C405.67 312.756 405.441 312.572 405.275 312.364C405.113 312.152 404.989 311.969 404.902 311.817H404.808V315.864H403.475ZM404.783 309.182C404.783 309.739 404.864 310.229 405.027 310.653C405.189 311.074 405.424 311.404 405.733 311.643C406.044 311.878 406.425 311.996 406.876 311.996C407.34 311.996 407.73 311.871 408.044 311.623C408.359 311.374 408.596 311.038 408.755 310.614C408.918 310.186 408.999 309.709 408.999 309.182C408.999 308.661 408.919 308.194 408.76 307.78C408.605 307.362 408.369 307.032 408.054 306.79C407.739 306.545 407.347 306.423 406.876 306.423C406.419 306.423 406.034 306.539 405.723 306.771C405.414 306.999 405.181 307.321 405.022 307.735C404.863 308.149 404.783 308.632 404.783 309.182ZM416.297 311.285L418.863 305.364H420.056L416.809 313H415.78L412.593 305.364H413.772L416.297 311.285ZM413.379 305.364V313H412.061V305.364H413.379ZM419.23 313V305.364H420.543V313H419.23ZM423.671 308.058H425.874C426.789 308.058 427.49 308.289 427.977 308.749C428.467 309.207 428.713 309.792 428.713 310.504C428.713 310.975 428.603 311.399 428.384 311.777C428.166 312.152 427.844 312.45 427.42 312.672C426.999 312.891 426.484 313 425.874 313H422.602V305.364H423.92V311.812H425.874C426.321 311.812 426.687 311.694 426.972 311.459C427.258 311.223 427.402 310.924 427.405 310.559C427.402 310.171 427.258 309.856 426.972 309.614C426.687 309.369 426.321 309.246 425.874 309.246H423.671V308.058ZM429.861 313V305.364H431.193V313H429.861Z" fill="black" fill-opacity="0.75"/>
<rect x="351.5" y="284.5" width="113" height="47" rx="23.5" stroke="black" stroke-opacity="0.75"/>
</g>
<g filter="url(#filter3_b_1379_5030)">
<rect x="481" y="284" width="220" height="48" rx="24" fill="#FBCB37"/>
<path d="M521.964 302.818V313H520.582V304.021H515.62V313H514.238V302.818H521.964ZM523.597 313V311.807H523.87C524.089 311.807 524.273 311.762 524.422 311.673C524.571 311.583 524.692 311.426 524.785 311.2C524.878 310.975 524.949 310.663 524.999 310.266C525.052 309.865 525.09 309.357 525.113 308.744L525.248 305.364H530.458V313H529.145V306.552H526.495L526.376 309.212C526.35 309.841 526.29 310.393 526.197 310.867C526.108 311.338 525.973 311.732 525.794 312.05C525.615 312.365 525.382 312.602 525.093 312.761C524.808 312.92 524.455 313 524.034 313H523.597ZM535.68 313.159C534.978 313.159 534.363 312.995 533.836 312.667C533.309 312.335 532.9 311.875 532.608 311.285C532.316 310.695 532.17 310.007 532.17 309.222C532.17 308.426 532.316 307.732 532.608 307.138C532.9 306.545 533.309 306.085 533.836 305.756C534.363 305.428 534.978 305.264 535.68 305.264C536.383 305.264 536.998 305.428 537.525 305.756C538.052 306.085 538.461 306.545 538.753 307.138C539.045 307.732 539.19 308.426 539.19 309.222C539.19 310.007 539.045 310.695 538.753 311.285C538.461 311.875 538.052 312.335 537.525 312.667C536.998 312.995 536.383 313.159 535.68 313.159ZM535.68 312.006C536.178 312.006 536.585 311.878 536.903 311.623C537.225 311.364 537.464 311.025 537.619 310.604C537.775 310.179 537.853 309.717 537.853 309.217C537.853 308.719 537.775 308.259 537.619 307.835C537.464 307.407 537.225 307.064 536.903 306.805C536.585 306.544 536.178 306.413 535.68 306.413C535.187 306.413 534.779 306.544 534.457 306.805C534.136 307.064 533.897 307.407 533.741 307.835C533.586 308.259 533.508 308.719 533.508 309.217C533.508 309.717 533.586 310.179 533.741 310.604C533.897 311.025 534.136 311.364 534.457 311.623C534.779 311.878 535.187 312.006 535.68 312.006ZM551.597 311.812L551.458 315.188H550.12V313H549.151V311.812H551.597ZM540.913 305.364H542.23V311.807H544.99V305.364H546.307V311.807H549.066V305.364H550.384V313H540.913V305.364ZM555.469 313.174C554.985 313.174 554.546 313.083 554.151 312.901C553.76 312.718 553.448 312.455 553.216 312.11C552.988 311.762 552.873 311.338 552.873 310.837C552.873 310.403 552.958 310.049 553.127 309.773C553.299 309.495 553.528 309.276 553.813 309.117C554.098 308.958 554.415 308.839 554.763 308.759C555.111 308.68 555.464 308.618 555.822 308.575C556.282 308.516 556.655 308.469 556.94 308.436C557.229 308.403 557.439 308.348 557.572 308.272C557.704 308.196 557.77 308.065 557.77 307.879V307.839C557.77 307.379 557.643 307.021 557.388 306.766C557.132 306.51 556.75 306.383 556.239 306.383C555.709 306.383 555.293 306.499 554.991 306.731C554.69 306.963 554.478 307.216 554.355 307.491L553.102 307.134C553.284 306.67 553.538 306.302 553.863 306.03C554.191 305.755 554.557 305.559 554.961 305.443C555.369 305.324 555.785 305.264 556.209 305.264C556.484 305.264 556.788 305.297 557.119 305.364C557.451 305.427 557.765 305.551 558.064 305.737C558.365 305.919 558.614 306.189 558.809 306.547C559.005 306.902 559.103 307.369 559.103 307.949V313H557.79V311.961H557.731C557.644 312.14 557.507 312.324 557.318 312.513C557.129 312.698 556.882 312.856 556.577 312.985C556.272 313.111 555.903 313.174 555.469 313.174ZM555.717 312.05C556.158 312.05 556.531 311.964 556.836 311.792C557.141 311.62 557.373 311.396 557.532 311.121C557.694 310.846 557.775 310.552 557.775 310.241V309.212C557.722 309.268 557.616 309.319 557.457 309.366C557.298 309.412 557.116 309.452 556.91 309.485C556.708 309.518 556.509 309.548 556.314 309.575C556.122 309.598 555.962 309.618 555.836 309.634C555.541 309.674 555.268 309.737 555.016 309.823C554.768 309.909 554.567 310.037 554.415 310.206C554.265 310.372 554.191 310.595 554.191 310.877C554.191 311.265 554.335 311.558 554.623 311.757C554.912 311.953 555.276 312.05 555.717 312.05ZM560.385 315.197V311.807H561.012C561.171 311.654 561.305 311.48 561.415 311.285C561.527 311.089 561.623 310.857 561.703 310.589C561.786 310.317 561.855 309.994 561.912 309.619C561.968 309.245 562.018 308.804 562.061 308.297L562.309 305.364H567.331V311.807H568.504V315.197H567.192V313H561.708V315.197H560.385ZM562.474 311.807H566.018V306.547H563.523L563.344 308.297C563.264 309.099 563.165 309.797 563.045 310.39C562.926 310.98 562.735 311.452 562.474 311.807ZM570.007 313V305.364H571.339V308.625H572.085L574.72 305.364H576.39L573.373 309.062L576.43 313H574.75L572.348 309.863H571.339V313H570.007ZM578.953 311.091L582.478 305.364H583.95V313H582.637V307.268L579.132 313H577.636V305.364H578.953V311.091ZM591.162 311.091L594.687 305.364H596.159V313H594.846V307.268L591.341 313H589.845V305.364H591.162V311.091ZM601.417 313V311.807H601.691C601.909 311.807 602.093 311.762 602.243 311.673C602.392 311.583 602.513 311.426 602.605 311.2C602.698 310.975 602.77 310.663 602.819 310.266C602.872 309.865 602.91 309.357 602.934 308.744L603.068 305.364H608.278V313H606.966V306.552H604.316L604.196 309.212C604.17 309.841 604.11 310.393 604.017 310.867C603.928 311.338 603.794 311.732 603.615 312.05C603.436 312.365 603.202 312.602 602.914 312.761C602.629 312.92 602.276 313 601.855 313H601.417ZM613.59 313.159C612.844 313.159 612.203 312.997 611.666 312.672C611.129 312.344 610.715 311.886 610.423 311.3C610.135 310.71 609.991 310.022 609.991 309.237C609.991 308.454 610.135 307.765 610.423 307.168C610.715 306.568 611.121 306.101 611.641 305.766C612.165 305.432 612.777 305.264 613.476 305.264C613.89 305.264 614.295 305.334 614.689 305.473C615.087 305.609 615.445 305.828 615.763 306.129C616.084 306.428 616.338 306.82 616.523 307.308C616.712 307.795 616.807 308.39 616.807 309.092V309.604H610.826V308.54H615.479C615.479 308.129 615.397 307.765 615.231 307.447C615.068 307.125 614.836 306.872 614.535 306.686C614.237 306.5 613.885 306.408 613.481 306.408C613.037 306.408 612.652 306.515 612.327 306.731C612.006 306.946 611.757 307.228 611.582 307.576C611.406 307.924 611.318 308.299 611.318 308.7V309.47C611.318 310.014 611.413 310.476 611.602 310.857C611.794 311.235 612.061 311.523 612.402 311.722C612.743 311.918 613.141 312.016 613.595 312.016C613.89 312.016 614.159 311.974 614.401 311.891C614.643 311.805 614.85 311.678 615.022 311.509C615.198 311.339 615.334 311.127 615.43 310.872L616.702 311.161C616.586 311.558 616.384 311.908 616.096 312.21C615.811 312.508 615.455 312.741 615.027 312.911C614.603 313.076 614.124 313.159 613.59 313.159ZM621.69 313.159C620.964 313.159 620.338 312.99 619.811 312.652C619.287 312.314 618.885 311.848 618.603 311.255C618.321 310.662 618.18 309.984 618.18 309.222C618.18 308.443 618.324 307.757 618.613 307.163C618.904 306.57 619.31 306.106 619.831 305.771C620.354 305.433 620.968 305.264 621.67 305.264C622.23 305.264 622.731 305.367 623.172 305.572C623.616 305.778 623.977 306.066 624.256 306.438C624.534 306.809 624.703 307.243 624.763 307.74H623.45C623.367 307.385 623.177 307.077 622.878 306.815C622.583 306.55 622.189 306.418 621.695 306.418C621.258 306.418 620.875 306.532 620.547 306.761C620.222 306.986 619.968 307.306 619.786 307.72C619.607 308.134 619.518 308.622 619.518 309.182C619.518 309.755 619.607 310.252 619.786 310.673C619.965 311.094 620.217 311.421 620.542 311.653C620.87 311.885 621.254 312.001 621.695 312.001C621.99 312.001 622.257 311.948 622.496 311.842C622.734 311.736 622.936 311.585 623.102 311.389C623.268 311.19 623.384 310.953 623.45 310.678H624.763C624.7 311.149 624.536 311.571 624.27 311.946C624.009 312.321 623.659 312.617 623.221 312.836C622.784 313.051 622.273 313.159 621.69 313.159ZM625.839 306.552V305.364H632.163V306.552H629.662V313H628.35V306.552H625.839ZM638.945 308.595V309.783H634.769V308.595H638.945ZM635.117 305.364V313H633.8V305.364H635.117ZM639.915 305.364V313H638.602V305.364H639.915ZM643.293 311.091L646.818 305.364H648.289V313H646.977V307.268L643.472 313H641.975V305.364H643.293V311.091ZM656.476 305.364V311.847H657.575V315.466H656.253V313H650.356V305.364H651.674V311.812H655.164V305.364H656.476ZM660.367 308.058H662.569C663.484 308.058 664.185 308.289 664.672 308.749C665.163 309.207 665.408 309.792 665.408 310.504C665.408 310.975 665.298 311.399 665.08 311.777C664.861 312.152 664.539 312.45 664.115 312.672C663.694 312.891 663.179 313 662.569 313H659.298V305.364H660.615V311.812H662.569C663.017 311.812 663.383 311.694 663.668 311.459C663.953 311.223 664.097 310.924 664.1 310.559C664.097 310.171 663.953 309.856 663.668 309.614C663.383 309.369 663.017 309.246 662.569 309.246H660.367V308.058ZM666.556 313V305.364H667.889V313H666.556Z" fill="black" fill-opacity="0.75"/>
<rect x="481.5" y="284.5" width="219" height="47" rx="23.5" stroke="black" stroke-opacity="0.75"/>
</g>
<g filter="url(#filter4_b_1379_5030)">
<rect x="717" y="284" width="188" height="48" rx="24" fill="#FBCB37"/>
<path d="M758.501 306.065H757.109C757.042 305.723 756.923 305.422 756.751 305.16C756.582 304.898 756.373 304.678 756.124 304.499C755.879 304.32 755.606 304.185 755.304 304.096C755.002 304.003 754.688 303.957 754.359 303.957C753.756 303.957 753.214 304.109 752.734 304.414C752.253 304.716 751.872 305.161 751.59 305.751C751.312 306.338 751.173 307.057 751.173 307.909C751.173 308.764 751.312 309.487 751.59 310.077C751.872 310.663 752.253 311.107 752.734 311.409C753.214 311.711 753.754 311.862 754.354 311.862C754.686 311.862 755.001 311.817 755.299 311.727C755.601 311.634 755.874 311.5 756.119 311.325C756.368 311.146 756.577 310.927 756.746 310.668C756.918 310.406 757.039 310.107 757.109 309.768H758.501C758.415 310.282 758.25 310.746 758.009 311.161C757.767 311.575 757.462 311.929 757.094 312.224C756.729 312.519 756.315 312.746 755.851 312.906C755.387 313.061 754.886 313.139 754.349 313.139C753.474 313.139 752.696 312.929 752.013 312.508C751.33 312.084 750.793 311.482 750.402 310.703C750.011 309.921 749.815 308.99 749.815 307.909C749.815 306.829 750.011 305.897 750.402 305.115C750.796 304.333 751.335 303.731 752.018 303.31C752.701 302.889 753.478 302.679 754.349 302.679C754.876 302.679 755.37 302.755 755.831 302.908C756.292 303.06 756.706 303.282 757.074 303.574C757.445 303.866 757.753 304.22 757.999 304.638C758.244 305.055 758.411 305.531 758.501 306.065ZM760.274 313V305.364H763.421C764.263 305.364 764.931 305.549 765.425 305.92C765.919 306.288 766.166 306.781 766.166 307.397C766.166 307.854 766.025 308.212 765.743 308.471C765.465 308.726 765.1 308.898 764.649 308.988C764.961 309.028 765.254 309.129 765.529 309.291C765.808 309.45 766.033 309.669 766.205 309.947C766.381 310.223 766.469 310.556 766.469 310.947C766.469 311.344 766.366 311.697 766.161 312.006C765.959 312.314 765.665 312.558 765.281 312.737C764.9 312.912 764.441 313 763.904 313H760.274ZM761.532 311.842H763.904C764.288 311.842 764.59 311.75 764.808 311.568C765.027 311.383 765.137 311.131 765.137 310.812C765.137 310.441 765.027 310.148 764.808 309.933C764.59 309.717 764.288 309.609 763.904 309.609H761.532V311.842ZM761.532 308.555H763.426C763.725 308.555 763.98 308.514 764.192 308.431C764.407 308.348 764.571 308.229 764.684 308.073C764.8 307.914 764.858 307.728 764.858 307.516C764.858 307.208 764.731 306.966 764.475 306.79C764.22 306.615 763.869 306.527 763.421 306.527H761.532V308.555ZM772.737 313V306.537H770.808C770.364 306.537 770.016 306.64 769.764 306.845C769.512 307.051 769.386 307.329 769.386 307.68C769.386 308.025 769.5 308.299 769.729 308.501C769.961 308.703 770.281 308.804 770.689 308.804H773.105V309.957H770.689C770.152 309.957 769.686 309.865 769.292 309.679C768.9 309.493 768.599 309.23 768.387 308.888C768.175 308.544 768.07 308.138 768.074 307.67C768.07 307.196 768.178 306.787 768.397 306.442C768.619 306.098 768.935 305.833 769.346 305.647C769.757 305.458 770.244 305.364 770.808 305.364H773.995V313H772.737ZM767.686 313L769.848 309.172H771.245L769.088 313H767.686ZM775.589 311.016H776.976C777 311.344 777.149 311.596 777.424 311.772C777.699 311.944 778.057 312.031 778.498 312.031C778.948 312.031 779.333 311.936 779.651 311.747C779.969 311.558 780.128 311.258 780.128 310.847C780.128 310.602 780.067 310.39 779.944 310.211C779.825 310.029 779.656 309.886 779.437 309.783C779.219 309.681 778.962 309.629 778.667 309.629H777.389V308.521H778.667C779.111 308.521 779.441 308.42 779.656 308.217C779.872 308.015 779.979 307.763 779.979 307.462C779.979 307.134 779.863 306.87 779.631 306.671C779.399 306.472 779.073 306.373 778.652 306.373C778.228 306.373 777.873 306.469 777.588 306.661C777.306 306.85 777.157 307.094 777.14 307.392H775.773C775.787 306.974 775.914 306.607 776.156 306.288C776.401 305.967 776.733 305.717 777.15 305.538C777.571 305.355 778.05 305.264 778.587 305.264C779.137 305.264 779.615 305.357 780.019 305.543C780.427 305.728 780.74 305.982 780.959 306.303C781.181 306.621 781.292 306.986 781.292 307.397C781.292 307.821 781.169 308.168 780.924 308.436C780.679 308.701 780.364 308.89 779.979 309.003V309.082C780.274 309.102 780.531 309.193 780.75 309.356C780.972 309.518 781.144 309.73 781.267 309.992C781.393 310.254 781.456 310.547 781.456 310.872C781.456 311.339 781.328 311.744 781.073 312.085C780.821 312.427 780.473 312.692 780.029 312.881C779.588 313.066 779.084 313.159 778.518 313.159C777.964 313.159 777.469 313.071 777.031 312.896C776.597 312.717 776.251 312.466 775.992 312.145C775.737 311.823 775.603 311.447 775.589 311.016ZM784.369 311.091L787.894 305.364H789.366V313H788.053V307.268L784.548 313H783.052V305.364H784.369V311.091ZM796.578 311.091L800.103 305.364H801.575V313H800.262V307.268L796.757 313H795.261V305.364H796.578V311.091ZM807.47 315.864V305.364H808.762V306.587H808.896C808.983 306.444 809.105 306.268 809.264 306.06C809.423 305.851 809.647 305.667 809.936 305.508C810.224 305.345 810.612 305.264 811.099 305.264C811.725 305.264 812.282 305.423 812.769 305.741C813.257 306.056 813.638 306.509 813.913 307.099C814.191 307.685 814.33 308.386 814.33 309.202C814.33 310.017 814.193 310.72 813.918 311.31C813.643 311.9 813.263 312.355 812.779 312.677C812.295 312.995 811.74 313.154 811.114 313.154C810.637 313.154 810.25 313.075 809.955 312.915C809.664 312.756 809.435 312.572 809.269 312.364C809.107 312.152 808.983 311.969 808.896 311.817H808.802V315.864H807.47ZM808.777 309.182C808.777 309.739 808.858 310.229 809.021 310.653C809.183 311.074 809.419 311.404 809.727 311.643C810.038 311.878 810.419 311.996 810.87 311.996C811.334 311.996 811.724 311.871 812.039 311.623C812.353 311.374 812.59 311.038 812.749 310.614C812.912 310.186 812.993 309.709 812.993 309.182C812.993 308.661 812.914 308.194 812.754 307.78C812.599 307.362 812.363 307.032 812.048 306.79C811.734 306.545 811.341 306.423 810.87 306.423C810.413 306.423 810.028 306.539 809.717 306.771C809.409 306.999 809.175 307.321 809.016 307.735C808.857 308.149 808.777 308.632 808.777 309.182ZM818.293 313.174C817.809 313.174 817.37 313.083 816.975 312.901C816.584 312.718 816.273 312.455 816.041 312.11C815.812 311.762 815.698 311.338 815.698 310.837C815.698 310.403 815.782 310.049 815.951 309.773C816.124 309.495 816.352 309.276 816.637 309.117C816.922 308.958 817.239 308.839 817.587 308.759C817.935 308.68 818.288 308.618 818.646 308.575C819.106 308.516 819.479 308.469 819.764 308.436C820.053 308.403 820.263 308.348 820.396 308.272C820.528 308.196 820.595 308.065 820.595 307.879V307.839C820.595 307.379 820.467 307.021 820.212 306.766C819.957 306.51 819.574 306.383 819.063 306.383C818.533 306.383 818.117 306.499 817.816 306.731C817.514 306.963 817.302 307.216 817.179 307.491L815.926 307.134C816.109 306.67 816.362 306.302 816.687 306.03C817.015 305.755 817.381 305.559 817.786 305.443C818.193 305.324 818.609 305.264 819.034 305.264C819.309 305.264 819.612 305.297 819.943 305.364C820.275 305.427 820.59 305.551 820.888 305.737C821.19 305.919 821.438 306.189 821.634 306.547C821.829 306.902 821.927 307.369 821.927 307.949V313H820.615V311.961H820.555C820.469 312.14 820.331 312.324 820.142 312.513C819.953 312.698 819.706 312.856 819.401 312.985C819.097 313.111 818.727 313.174 818.293 313.174ZM818.541 312.05C818.982 312.05 819.355 311.964 819.66 311.792C819.965 311.62 820.197 311.396 820.356 311.121C820.518 310.846 820.6 310.552 820.6 310.241V309.212C820.547 309.268 820.441 309.319 820.281 309.366C820.122 309.412 819.94 309.452 819.735 309.485C819.532 309.518 819.334 309.548 819.138 309.575C818.946 309.598 818.787 309.618 818.661 309.634C818.366 309.674 818.092 309.737 817.84 309.823C817.592 309.909 817.391 310.037 817.239 310.206C817.09 310.372 817.015 310.595 817.015 310.877C817.015 311.265 817.159 311.558 817.448 311.757C817.736 311.953 818.101 312.05 818.541 312.05ZM827.147 313.159C826.421 313.159 825.795 312.99 825.268 312.652C824.744 312.314 824.342 311.848 824.06 311.255C823.778 310.662 823.637 309.984 823.637 309.222C823.637 308.443 823.781 307.757 824.07 307.163C824.361 306.57 824.767 306.106 825.288 305.771C825.811 305.433 826.425 305.264 827.127 305.264C827.687 305.264 828.188 305.367 828.629 305.572C829.073 305.778 829.434 306.066 829.713 306.438C829.991 306.809 830.16 307.243 830.22 307.74H828.907C828.824 307.385 828.634 307.077 828.335 306.815C828.04 306.55 827.646 306.418 827.152 306.418C826.715 306.418 826.332 306.532 826.004 306.761C825.679 306.986 825.425 307.306 825.243 307.72C825.064 308.134 824.975 308.622 824.975 309.182C824.975 309.755 825.064 310.252 825.243 310.673C825.422 311.094 825.674 311.421 825.999 311.653C826.327 311.885 826.711 312.001 827.152 312.001C827.447 312.001 827.714 311.948 827.953 311.842C828.191 311.736 828.393 311.585 828.559 311.389C828.725 311.19 828.841 310.953 828.907 310.678H830.22C830.157 311.149 829.993 311.571 829.727 311.946C829.466 312.321 829.116 312.617 828.678 312.836C828.241 313.051 827.731 313.159 827.147 313.159ZM831.874 313V305.364H837.994V313H836.676V306.552H833.186V313H831.874ZM843.225 313.159C842.523 313.159 841.908 312.995 841.381 312.667C840.854 312.335 840.445 311.875 840.153 311.285C839.861 310.695 839.715 310.007 839.715 309.222C839.715 308.426 839.861 307.732 840.153 307.138C840.445 306.545 840.854 306.085 841.381 305.756C841.908 305.428 842.523 305.264 843.225 305.264C843.928 305.264 844.543 305.428 845.07 305.756C845.597 306.085 846.006 306.545 846.298 307.138C846.589 307.732 846.735 308.426 846.735 309.222C846.735 310.007 846.589 310.695 846.298 311.285C846.006 311.875 845.597 312.335 845.07 312.667C844.543 312.995 843.928 313.159 843.225 313.159ZM843.225 312.006C843.722 312.006 844.13 311.878 844.448 311.623C844.77 311.364 845.008 311.025 845.164 310.604C845.32 310.179 845.398 309.717 845.398 309.217C845.398 308.719 845.32 308.259 845.164 307.835C845.008 307.407 844.77 307.064 844.448 306.805C844.13 306.544 843.722 306.413 843.225 306.413C842.731 306.413 842.324 306.544 842.002 306.805C841.681 307.064 841.442 307.407 841.286 307.835C841.131 308.259 841.053 308.719 841.053 309.217C841.053 309.717 841.131 310.179 841.286 310.604C841.442 311.025 841.681 311.364 842.002 311.623C842.324 311.878 842.731 312.006 843.225 312.006ZM848.458 315.864V305.364H849.751V306.587H849.885C849.971 306.444 850.094 306.268 850.253 306.06C850.412 305.851 850.635 305.667 850.924 305.508C851.212 305.345 851.6 305.264 852.087 305.264C852.714 305.264 853.27 305.423 853.758 305.741C854.245 306.056 854.626 306.509 854.901 307.099C855.18 307.685 855.319 308.386 855.319 309.202C855.319 310.017 855.181 310.72 854.906 311.31C854.631 311.9 854.251 312.355 853.768 312.677C853.284 312.995 852.729 313.154 852.102 313.154C851.625 313.154 851.239 313.075 850.944 312.915C850.652 312.756 850.423 312.572 850.258 312.364C850.095 312.152 849.971 311.969 849.885 311.817H849.79V315.864H848.458ZM849.765 309.182C849.765 309.739 849.847 310.229 850.009 310.653C850.171 311.074 850.407 311.404 850.715 311.643C851.027 311.878 851.408 311.996 851.858 311.996C852.323 311.996 852.712 311.871 853.027 311.623C853.342 311.374 853.579 311.038 853.738 310.614C853.9 310.186 853.981 309.709 853.981 309.182C853.981 308.661 853.902 308.194 853.743 307.78C853.587 307.362 853.352 307.032 853.037 306.79C852.722 306.545 852.329 306.423 851.858 306.423C851.401 306.423 851.017 306.539 850.705 306.771C850.397 306.999 850.163 307.321 850.004 307.735C849.845 308.149 849.765 308.632 849.765 309.182ZM857.044 313V305.364H858.376V308.625H859.122L861.757 305.364H863.427L860.41 309.062L863.467 313H861.787L859.385 309.863H858.376V313H857.044ZM865.99 311.091L869.515 305.364H870.987V313H869.674V307.268L866.169 313H864.673V305.364H865.99V311.091Z" fill="black" fill-opacity="0.75"/>
<rect x="717.5" y="284.5" width="187" height="47" rx="23.5" stroke="black" stroke-opacity="0.75"/>
</g>
<g filter="url(#filter5_b_1379_5030)">
<rect x="921" y="284" width="125" height="48" rx="24" fill="#FBCB37"/>
<path d="M961.964 302.818V313H960.582V304.021H955.62V313H954.238V302.818H961.964ZM964.233 315.864V305.364H965.526V306.587H965.66C965.746 306.444 965.869 306.268 966.028 306.06C966.187 305.851 966.411 305.667 966.699 305.508C966.988 305.345 967.375 305.264 967.863 305.264C968.489 305.264 969.046 305.423 969.533 305.741C970.02 306.056 970.401 306.509 970.676 307.099C970.955 307.685 971.094 308.386 971.094 309.202C971.094 310.017 970.957 310.72 970.681 311.31C970.406 311.9 970.027 312.355 969.543 312.677C969.059 312.995 968.504 313.154 967.877 313.154C967.4 313.154 967.014 313.075 966.719 312.915C966.427 312.756 966.199 312.572 966.033 312.364C965.871 312.152 965.746 311.969 965.66 311.817H965.566V315.864H964.233ZM965.541 309.182C965.541 309.739 965.622 310.229 965.784 310.653C965.947 311.074 966.182 311.404 966.49 311.643C966.802 311.878 967.183 311.996 967.634 311.996C968.098 311.996 968.487 311.871 968.802 311.623C969.117 311.374 969.354 311.038 969.513 310.614C969.676 310.186 969.757 309.709 969.757 309.182C969.757 308.661 969.677 308.194 969.518 307.78C969.362 307.362 969.127 307.032 968.812 306.79C968.497 306.545 968.105 306.423 967.634 306.423C967.176 306.423 966.792 306.539 966.48 306.771C966.172 306.999 965.939 307.321 965.779 307.735C965.62 308.149 965.541 308.632 965.541 309.182ZM975.981 313.159C975.279 313.159 974.664 312.995 974.137 312.667C973.61 312.335 973.2 311.875 972.909 311.285C972.617 310.695 972.471 310.007 972.471 309.222C972.471 308.426 972.617 307.732 972.909 307.138C973.2 306.545 973.61 306.085 974.137 305.756C974.664 305.428 975.279 305.264 975.981 305.264C976.684 305.264 977.299 305.428 977.826 305.756C978.353 306.085 978.762 306.545 979.054 307.138C979.345 307.732 979.491 308.426 979.491 309.222C979.491 310.007 979.345 310.695 979.054 311.285C978.762 311.875 978.353 312.335 977.826 312.667C977.299 312.995 976.684 313.159 975.981 313.159ZM975.981 312.006C976.478 312.006 976.886 311.878 977.204 311.623C977.526 311.364 977.764 311.025 977.92 310.604C978.076 310.179 978.154 309.717 978.154 309.217C978.154 308.719 978.076 308.259 977.92 307.835C977.764 307.407 977.526 307.064 977.204 306.805C976.886 306.544 976.478 306.413 975.981 306.413C975.487 306.413 975.08 306.544 974.758 306.805C974.437 307.064 974.198 307.407 974.042 307.835C973.886 308.259 973.809 308.719 973.809 309.217C973.809 309.717 973.886 310.179 974.042 310.604C974.198 311.025 974.437 311.364 974.758 311.623C975.08 311.878 975.487 312.006 975.981 312.006ZM986.016 305.364V306.552H982.536V313H981.214V305.364H986.016ZM990.432 313.159C989.73 313.159 989.115 312.995 988.588 312.667C988.061 312.335 987.652 311.875 987.36 311.285C987.068 310.695 986.922 310.007 986.922 309.222C986.922 308.426 987.068 307.732 987.36 307.138C987.652 306.545 988.061 306.085 988.588 305.756C989.115 305.428 989.73 305.264 990.432 305.264C991.135 305.264 991.75 305.428 992.277 305.756C992.804 306.085 993.213 306.545 993.505 307.138C993.796 307.732 993.942 308.426 993.942 309.222C993.942 310.007 993.796 310.695 993.505 311.285C993.213 311.875 992.804 312.335 992.277 312.667C991.75 312.995 991.135 313.159 990.432 313.159ZM990.432 312.006C990.93 312.006 991.337 311.878 991.655 311.623C991.977 311.364 992.215 311.025 992.371 310.604C992.527 310.179 992.605 309.717 992.605 309.217C992.605 308.719 992.527 308.259 992.371 307.835C992.215 307.407 991.977 307.064 991.655 306.805C991.337 306.544 990.93 306.413 990.432 306.413C989.939 306.413 989.531 306.544 989.209 306.805C988.888 307.064 988.649 307.407 988.493 307.835C988.338 308.259 988.26 308.719 988.26 309.217C988.26 309.717 988.338 310.179 988.493 310.604C988.649 311.025 988.888 311.364 989.209 311.623C989.531 311.878 989.939 312.006 990.432 312.006ZM1000.81 308.595V309.783H996.634V308.595H1000.81ZM996.982 305.364V313H995.665V305.364H996.982ZM1001.78 305.364V313H1000.47V305.364H1001.78ZM1004.91 308.058H1007.11C1008.03 308.058 1008.73 308.289 1009.22 308.749C1009.71 309.207 1009.95 309.792 1009.95 310.504C1009.95 310.975 1009.84 311.399 1009.62 311.777C1009.4 312.152 1009.08 312.45 1008.66 312.672C1008.24 312.891 1007.72 313 1007.11 313H1003.84V305.364H1005.16V311.812H1007.11C1007.56 311.812 1007.93 311.694 1008.21 311.459C1008.5 311.223 1008.64 310.924 1008.64 310.559C1008.64 310.171 1008.5 309.856 1008.21 309.614C1007.93 309.369 1007.56 309.246 1007.11 309.246H1004.91V308.058ZM1011.1 313V305.364H1012.43V313H1011.1Z" fill="black" fill-opacity="0.75"/>
<rect x="921.5" y="284.5" width="124" height="47" rx="23.5" stroke="black" stroke-opacity="0.75"/>
</g>
<defs>
<filter id="filter0_b_1379_5030" x="-10" y="274" width="214" height="68" filterUnits="userSpaceOnUse" color-interpolation-filters="sRGB">
<feFlood flood-opacity="0" result="BackgroundImageFix"/>
<feGaussianBlur in="BackgroundImageFix" stdDeviation="5"/>
<feComposite in2="SourceAlpha" operator="in" result="effect1_backgroundBlur_1379_5030"/>
<feBlend mode="normal" in="SourceGraphic" in2="effect1_backgroundBlur_1379_5030" result="shape"/>
</filter>
<filter id="filter1_b_1379_5030" x="200" y="274" width="145" height="68" filterUnits="userSpaceOnUse" color-interpolation-filters="sRGB">
<feFlood flood-opacity="0" result="BackgroundImageFix"/>
<feGaussianBlur in="BackgroundImageFix" stdDeviation="5"/>
<feComposite in2="SourceAlpha" operator="in" result="effect1_backgroundBlur_1379_5030"/>
<feBlend mode="normal" in="SourceGraphic" in2="effect1_backgroundBlur_1379_5030" result="shape"/>
</filter>
<filter id="filter2_b_1379_5030" x="341" y="274" width="134" height="68" filterUnits="userSpaceOnUse" color-interpolation-filters="sRGB">
<feFlood flood-opacity="0" result="BackgroundImageFix"/>
<feGaussianBlur in="BackgroundImageFix" stdDeviation="5"/>
<feComposite in2="SourceAlpha" operator="in" result="effect1_backgroundBlur_1379_5030"/>
<feBlend mode="normal" in="SourceGraphic" in2="effect1_backgroundBlur_1379_5030" result="shape"/>
</filter>
<filter id="filter3_b_1379_5030" x="471" y="274" width="240" height="68" filterUnits="userSpaceOnUse" color-interpolation-filters="sRGB">
<feFlood flood-opacity="0" result="BackgroundImageFix"/>
<feGaussianBlur in="BackgroundImageFix" stdDeviation="5"/>
<feComposite in2="SourceAlpha" operator="in" result="effect1_backgroundBlur_1379_5030"/>
<feBlend mode="normal" in="SourceGraphic" in2="effect1_backgroundBlur_1379_5030" result="shape"/>
</filter>
<filter id="filter4_b_1379_5030" x="707" y="274" width="208" height="68" filterUnits="userSpaceOnUse" color-interpolation-filters="sRGB">
<feFlood flood-opacity="0" result="BackgroundImageFix"/>
<feGaussianBlur in="BackgroundImageFix" stdDeviation="5"/>
<feComposite in2="SourceAlpha" operator="in" result="effect1_backgroundBlur_1379_5030"/>
<feBlend mode="normal" in="SourceGraphic" in2="effect1_backgroundBlur_1379_5030" result="shape"/>
</filter>
<filter id="filter5_b_1379_5030" x="911" y="274" width="145" height="68" filterUnits="userSpaceOnUse" color-interpolation-filters="sRGB">
<feFlood flood-opacity="0" result="BackgroundImageFix"/>
<feGaussianBlur in="BackgroundImageFix" stdDeviation="5"/>
<feComposite in2="SourceAlpha" operator="in" result="effect1_backgroundBlur_1379_5030"/>
<feBlend mode="normal" in="SourceGraphic" in2="effect1_backgroundBlur_1379_5030" result="shape"/>
</filter>
<clipPath id="clip0_1379_5030">
<rect width="1133" height="175" fill="white" transform="translate(0 157)"/>
</clipPath>
<clipPath id="clip1_1379_5030">
<rect width="175" height="175" fill="white" transform="translate(0 157)"/>
</clipPath>
<clipPath id="clip2_1379_5030">
<rect width="175" height="175" fill="white" transform="translate(175 157)"/>
</clipPath>
<clipPath id="clip3_1379_5030">
<rect width="175" height="175" fill="white" transform="translate(350 157)"/>
</clipPath>
<clipPath id="clip4_1379_5030">
<rect width="175" height="175" fill="white" transform="translate(525 157)"/>
</clipPath>
<clipPath id="clip5_1379_5030">
<rect width="175" height="175" fill="white" transform="translate(700 157)"/>
</clipPath>
<clipPath id="clip6_1379_5030">
<rect width="175" height="175" fill="white" transform="translate(875 157)"/>
</clipPath>
<clipPath id="clip7_1379_5030">
<rect width="175" height="175" fill="white" transform="translate(1050 157)"/>
</clipPath>
</defs>
</svg>
