<svg width="176" height="112" viewBox="0 0 176 112" fill="none" xmlns="http://www.w3.org/2000/svg">
<g style="mix-blend-mode:multiply">
<path d="M176 112H95.9999L96 79.9994H176L176 112Z" fill="#F1B705"/>
<path d="M96 79.9994C106.506 79.9994 116.909 77.9303 126.615 73.9099C136.321 69.8896 145.14 63.9968 152.569 56.5681C159.997 49.1395 165.89 40.3203 169.91 30.6143C173.931 20.9083 176 10.5054 176 -0.000328064H144C144 6.30312 142.758 12.5448 140.346 18.3685C137.934 24.1921 134.398 29.4835 129.941 33.9408C125.484 38.398 120.192 41.9336 114.369 44.3458C108.545 46.7581 102.304 47.9996 96.0001 47.9996L96 79.9994Z" fill="#F1B705"/>
<path d="M79.9999 112H0V79.9996H79.9999V112Z" fill="#F1B705"/>
<path d="M0 79.9996C10.5057 79.9996 20.9087 77.9305 30.6147 73.9101C40.3208 69.8897 49.1399 63.997 56.5686 56.5683C63.9972 49.1396 69.89 40.3205 73.9104 30.6145C77.9307 20.9084 80 10.5056 80 -0.000167847H48C48 6.30328 46.7585 12.545 44.3463 18.3686C41.934 24.1922 38.3984 29.4837 33.9412 33.9409C29.484 38.3981 24.1925 41.9338 18.3689 44.346C12.5452 46.7582 6.30353 47.9998 8.39233e-05 47.9998L0 79.9996Z" fill="#F1B705"/>
</g>
</svg>
