<svg width="40" height="40" viewBox="0 0 40 40" fill="none" xmlns="http://www.w3.org/2000/svg">
<g clip-path="url(#clip0_336_2593)">
<path d="M26.8105 3.68997C24.6225 4.68995 22.2797 6.102 19.9159 7.8455C17.5521 9.58901 15.2137 11.6298 13.0341 13.8514C10.8545 16.0731 8.87638 18.432 7.21275 20.7934C5.54912 23.1549 4.23254 25.4728 3.33817 27.6147C2.4438 29.7565 1.98915 31.6805 2.0002 33.2766C2.01124 34.8728 2.48775 36.1099 3.40253 36.9173C4.31731 37.7247 5.65244 38.0867 7.33168 37.9825C9.01093 37.8783 11.0014 37.31 13.1895 36.31C15.3775 35.3101 17.7203 33.898 20.0841 32.1545C22.4479 30.411 24.7863 28.3702 26.9659 26.1486C29.1455 23.9269 31.1236 21.568 32.7873 19.2066C34.4509 16.8451 35.7675 14.5272 36.6618 12.3853C37.5562 10.2435 38.0108 8.31955 37.9998 6.7234C37.9888 5.12724 37.5122 3.89013 36.5975 3.08269C35.6827 2.27525 34.3476 1.9133 32.6683 2.0175C30.9891 2.12169 28.9986 2.69 26.8105 3.68997Z" stroke="#F1B705" stroke-width="4"/>
<path d="M33.9258 22.487C32.428 20.1459 30.5848 17.7634 28.5012 15.4755C26.4177 13.1876 24.1347 11.0391 21.7825 9.15276C19.4303 7.26639 17.0551 5.67907 14.7924 4.48142C12.5297 3.28377 10.4238 2.49925 8.59505 2.17264C6.76629 1.84604 5.25044 1.98376 4.13404 2.57792C3.01764 3.17209 2.32255 4.21107 2.08848 5.63556C1.8544 7.06004 2.0859 8.84211 2.76978 10.88C3.45366 12.918 4.57651 15.1718 6.07423 17.513C7.57195 19.8541 9.41521 22.2366 11.4988 24.5245C13.5823 26.8124 15.8653 28.9609 18.2175 30.8472C20.5697 32.7336 22.9449 34.3209 25.2076 35.5186C27.4704 36.7162 29.5762 37.5008 31.405 37.8274C33.2337 38.154 34.7496 38.0162 35.866 37.4221C36.9824 36.8279 37.6774 35.7889 37.9115 34.3644C38.1456 32.94 37.9141 31.1579 37.2302 29.12C36.5463 27.082 35.4235 24.8282 33.9258 22.487Z" stroke="#F1B705" stroke-width="4"/>
</g>
<defs>
<clipPath id="clip0_336_2593">
<rect width="40" height="40" fill="white"/>
</clipPath>
</defs>
</svg>
