<svg width="40" height="40" viewBox="0 0 40 40" fill="none" xmlns="http://www.w3.org/2000/svg">
<g clip-path="url(#clip0_879_1328)">
<path d="M0 10.4706L-0.779987 8.62895V12.3122L0 10.4706ZM20 18.9412L19.22 20.7828L20 21.1132L20.78 20.7828L20 18.9412ZM40 10.4706L40.78 12.3122V8.62895L40 10.4706ZM0.779987 18.1584L-1.06165 17.3784L-2.62162 21.0616L-0.779987 21.8416L0.779987 18.1584ZM20 28.4706L19.22 30.3122L20 30.6426L20.78 30.3122L20 28.4706ZM40.78 21.8416L42.6216 21.0616L41.0616 17.3784L39.22 18.1584L40.78 21.8416ZM0.779987 27.6878L-1.06165 26.9078L-2.62162 30.5911L-0.779987 31.371L0.779987 27.6878ZM20 38L19.22 39.8416L20 40.172L20.78 39.8416L20 38ZM40.78 31.371L42.6216 30.5911L41.0616 26.9078L39.22 27.6878L40.78 31.371ZM20 2L20.78 0.158365L20 -0.171983L19.22 0.158365L20 2ZM-0.779987 12.3122L19.22 20.7828L20.78 17.0995L0.779987 8.62895L-0.779987 12.3122ZM20.78 20.7828L40.78 12.3122L39.22 8.62895L19.22 17.0995L20.78 20.7828ZM-0.779987 21.8416L19.22 30.3122L20.78 26.629L0.779987 18.1584L-0.779987 21.8416ZM20.78 30.3122L40.78 21.8416L39.22 18.1584L19.22 26.629L20.78 30.3122ZM-0.779987 31.371L19.22 39.8416L20.78 36.1584L0.779987 27.6878L-0.779987 31.371ZM20.78 39.8416L40.78 31.371L39.22 27.6878L19.22 36.1584L20.78 39.8416ZM0.779987 12.3122L20.78 3.84164L19.22 0.158365L-0.779987 8.62895L0.779987 12.3122ZM19.22 3.84164L39.22 12.3122L40.78 8.62895L20.78 0.158365L19.22 3.84164Z" fill="#F1B705"/>
</g>
<defs>
<clipPath id="clip0_879_1328">
<rect width="40" height="40" fill="white"/>
</clipPath>
</defs>
</svg>
