<svg width="40" height="40" viewBox="0 0 40 40" fill="none" xmlns="http://www.w3.org/2000/svg">
<g clip-path="url(#clip0_1271_6675)">
<path d="M6 2H2V38H38V34L34 30L10 30V6L6 2Z" stroke="#F1B705" stroke-width="4"/>
<path d="M6 9H10" stroke="#F1B705" stroke-width="4" stroke-linejoin="bevel"/>
<path d="M6 16H10" stroke="#F1B705" stroke-width="4" stroke-linejoin="bevel"/>
<path d="M6 23H10" stroke="#F1B705" stroke-width="4" stroke-linejoin="bevel"/>
<path d="M6 30H10" stroke="#F1B705" stroke-width="4" stroke-linejoin="bevel"/>
<path d="M10 34V30" stroke="#F1B705" stroke-width="4" stroke-linejoin="bevel"/>
<path d="M17 34V30" stroke="#F1B705" stroke-width="4" stroke-linejoin="bevel"/>
<path d="M24 34V30" stroke="#F1B705" stroke-width="4" stroke-linejoin="bevel"/>
<path d="M31 34V30" stroke="#F1B705" stroke-width="4" stroke-linejoin="bevel"/>
<rect x="36" width="4" height="4" fill="#F1B705"/>
<rect x="36" y="20" width="4" height="4" fill="#F1B705"/>
<rect x="26" width="4" height="4" fill="#F1B705"/>
<rect x="26" y="10" width="4" height="4" fill="#F1B705"/>
<rect x="36" y="10" width="4" height="4" fill="#F1B705"/>
<rect x="16" width="4" height="4" fill="#F1B705"/>
</g>
<defs>
<clipPath id="clip0_1271_6675">
<rect width="40" height="40" fill="white"/>
</clipPath>
</defs>
</svg>
