<svg width="40" height="40" viewBox="0 0 40 40" fill="none" xmlns="http://www.w3.org/2000/svg">
<g clip-path="url(#clip0_1431_1169)">
<path fill-rule="evenodd" clip-rule="evenodd" d="M0 36.4776L15.3536 14.2148L18.6465 16.4858L3.29347 38.7477L5.91278e-05 40.0003L0 36.4776ZM40 36.4776L24.6464 14.2148L21.3535 16.4858L36.7065 38.7477L39.9999 40.0003L40 36.4776Z" fill="#F1B705"/>
<path d="M20 6C17.2386 6 15 8.23858 15 11C15 13.7614 17.2386 16 20 16C22.7614 16 25 13.7614 25 11C25 8.23858 22.7614 6 20 6ZM20 6V0M36 23.002C32.3511 27.8586 26.5424 31 20 31M20 31C13.4576 31 7.64892 27.8586 4 23.002M20 31V36M20 31V26" stroke="#F1B705" stroke-width="4"/>
</g>
<defs>
<clipPath id="clip0_1431_1169">
<rect width="40" height="40" fill="white"/>
</clipPath>
</defs>
</svg>
