<svg width="40" height="40" viewBox="0 0 40 40" fill="none" xmlns="http://www.w3.org/2000/svg">
<g clip-path="url(#clip0_1271_1093)">
<path d="M9 2V0H7.34499L7.03532 1.62578L9 2ZM26.5 2L28.39 2.65422L29.3087 0H26.5V2ZM22 15L20.11 14.3458L19.1913 17H22V15ZM36 15L37.313 16.5086L36 13V15ZM9 38.5L7.09658 37.886L10.313 40.0086L9 38.5ZM14 23L15.9034 23.614L16.7466 21H14V23ZM5 23L3.03532 22.6258L2.58309 25H5V23ZM9 4H26.5V0H9V4ZM24.61 1.34578L20.11 14.3458L23.89 15.6542L28.39 2.65422L24.61 1.34578ZM22 17H36V13H22V17ZM34.687 13.4914L7.68695 36.9914L10.313 40.0086L37.313 16.5086L34.687 13.4914ZM10.9034 39.114L15.9034 23.614L12.0966 22.386L7.09658 37.886L10.9034 39.114ZM14 21H5V25H14V21ZM6.96468 23.3742L10.9647 2.37422L7.03532 1.62578L3.03532 22.6258L6.96468 23.3742Z" fill="#F1B705"/>
</g>
<defs>
<clipPath id="clip0_1271_1093">
<rect width="40" height="40" fill="white"/>
</clipPath>
</defs>
</svg>
