<svg width="40" height="40" viewBox="0 0 40 40" fill="none" xmlns="http://www.w3.org/2000/svg">
<g clip-path="url(#clip0_1271_2583)">
<rect y="36" width="4" height="4" fill="#F1B705"/>
<rect width="4" height="4" fill="#F1B705"/>
<rect x="36" y="36" width="4" height="4" fill="#F1B705"/>
<rect x="36" y="18" width="4" height="4" fill="#F1B705"/>
<rect x="36" width="4" height="4" fill="#F1B705"/>
<rect x="18" y="36" width="4" height="4" fill="#F1B705"/>
<rect x="18" y="18" width="4" height="4" fill="#F1B705"/>
<rect y="18" width="4" height="4" fill="#F1B705"/>
<rect x="18" width="4" height="4" fill="#F1B705"/>
<path d="M20 36C20 31.0294 15.9706 27 11 27C6.02944 27 2 31.0294 2 36" stroke="#F1B705" stroke-width="4"/>
<path d="M38 18C38 13.0294 33.9706 9 29 9C24.0294 9 20 13.0294 20 18" stroke="#F1B705" stroke-width="4"/>
</g>
<defs>
<clipPath id="clip0_1271_2583">
<rect width="40" height="40" fill="white"/>
</clipPath>
</defs>
</svg>
