<svg width="40" height="40" viewBox="0 0 40 40" fill="none" xmlns="http://www.w3.org/2000/svg">
<g clip-path="url(#clip0_1271_2555)">
<path d="M4.5 20V22H5.98806L6.41565 20.5747L4.5 20ZM7.5 10L9.43629 9.49923L5.58435 9.4253L7.5 10ZM15 39L13.0637 39.5008L16.9794 39.2865L15 39ZM20.5 1L22.436 0.498076L18.5206 0.713512L20.5 1ZM27.5 28L25.564 28.5019L29.3849 28.6688L27.5 28ZM33 12.5L34.8974 11.8675L31.1151 11.8312L33 12.5ZM35.5 20L33.6026 20.6325L34.0585 22H35.5V20ZM0 22H4.5V18H0V22ZM6.41565 20.5747L9.41565 10.5747L5.58435 9.4253L2.58435 19.4253L6.41565 20.5747ZM5.56371 10.5008L13.0637 39.5008L16.9363 38.4992L9.43629 9.49923L5.56371 10.5008ZM16.9794 39.2865L22.4794 1.28649L18.5206 0.713512L13.0206 38.7135L16.9794 39.2865ZM18.564 1.50192L25.564 28.5019L29.436 27.4981L22.436 0.498076L18.564 1.50192ZM29.3849 28.6688L34.8849 13.1688L31.1151 11.8312L25.6151 27.3312L29.3849 28.6688ZM31.1026 13.1325L33.6026 20.6325L37.3974 19.3675L34.8974 11.8675L31.1026 13.1325ZM35.5 22H40V18H35.5V22Z" fill="#F1B705"/>
</g>
<defs>
<clipPath id="clip0_1271_2555">
<rect width="40" height="40" fill="white"/>
</clipPath>
</defs>
</svg>
