<svg width="45" height="40" viewBox="0 0 45 40" fill="none" xmlns="http://www.w3.org/2000/svg">
<g clip-path="url(#clip0_336_2589)">
<path d="M36.9957 37L35.5814 38.4141L36.9957 39.8286L38.41 38.4141L36.9957 37ZM42.6061 26.5024L40.6445 26.1122L42.6061 26.5024ZM41.4395 14.6566L43.2873 13.8913V13.8913L41.4395 14.6566ZM33.8892 5.4553L32.7779 7.11818L33.8892 5.4553ZM11.1108 5.4553L12.2221 7.11817L11.1108 5.4553ZM2.39391 26.5024L4.35549 26.1122H4.35549L2.39391 26.5024ZM8.00432 37L6.59001 38.4141L8.00432 39.8286L9.41862 38.4141L8.00432 37ZM20.5 5.53492L20.5 7.53492L24.5 7.53492L24.5 5.53492L20.5 5.53492ZM35.9107 33.0863L34.4966 31.672L31.668 34.5003L33.0821 35.9146L35.9107 33.0863ZM11.9179 35.9146L13.332 34.5003L10.5034 31.672L9.08926 33.0863L11.9179 35.9146ZM39.4655 20.5025H37.4655V24.5025H39.4655V20.5025ZM3.56048 14.6565L1.71269 13.8913H1.71269L3.56048 14.6565ZM5.53449 24.5025H7.53449V20.5025H5.53449V24.5025ZM8.00431 8.00505L6.59 6.59093L6.58999 6.59093L8.00431 8.00505ZM9.08927 11.9187L10.5034 13.333L13.332 10.5048L11.9179 9.09049L9.08927 11.9187ZM21.4009 26.4304L33.4652 14.3645L30.6366 11.5363L18.5723 23.6021L21.4009 26.4304ZM38.41 38.4141C41.5566 35.2671 43.6995 31.2575 44.5677 26.8925L40.6445 26.1122C39.9307 29.7014 38.1687 32.9983 35.5814 35.5859L38.41 38.4141ZM43.2873 13.8913C41.5844 9.7795 38.7005 6.26506 35.0004 3.79242L32.7779 7.11818C35.8203 9.15123 38.1915 12.0409 39.5917 15.4218L43.2873 13.8913ZM35.0004 3.79242C31.3003 1.31978 26.9501 0 22.5 0V4C26.1589 4 29.7356 5.08512 32.7779 7.11818L35.0004 3.79242ZM22.5 0C18.0499 0 13.6997 1.31978 9.99958 3.79242L12.2221 7.11817C15.2644 5.08512 18.8411 4 22.5 4V0ZM0.432331 26.8925C1.30048 31.2575 3.44335 35.2671 6.59001 38.4141L9.41862 35.5859C6.83133 32.9983 5.06934 29.7014 4.35549 26.1122L0.432331 26.8925ZM24.5 5.53492L24.5 2L20.5 2L20.5 5.53492L24.5 5.53492ZM38.41 35.5859L35.9107 33.0863L33.0821 35.9146L35.5814 38.4141L38.41 35.5859ZM9.41862 38.4141L11.9179 35.9146L9.08926 33.0863L6.59001 35.5859L9.41862 38.4141ZM44.5677 26.8925C44.8566 25.4398 45 23.9694 45 22.5025L41 22.5025C41 23.7087 40.8821 24.9177 40.6445 26.1122L44.5677 26.8925ZM45 22.5025C45 19.5617 44.4235 16.6346 43.2873 13.8913L39.5917 15.4218C40.526 17.6776 41 20.0844 41 22.5025L45 22.5025ZM43 20.5025H39.4655V24.5025H43V20.5025ZM1.71269 13.8913C0.576485 16.6346 2.00272e-05 19.5617 0 22.5025L4 22.5025C4.00002 20.0844 4.47404 17.6776 5.40827 15.4218L1.71269 13.8913ZM0 22.5025C-1.00136e-05 23.9695 0.143412 25.4398 0.432331 26.8925L4.35549 26.1122C4.11792 24.9177 3.99999 23.7087 4 22.5025L0 22.5025ZM5.53449 20.5025H2V24.5025H5.53449V20.5025ZM9.99958 3.79242C8.76819 4.61532 7.62716 5.55362 6.59 6.59093L9.41862 9.41917C10.2714 8.56628 11.2095 7.7948 12.2221 7.11817L9.99958 3.79242ZM6.58999 6.59093C4.51077 8.67044 2.84889 11.1479 1.71269 13.8913L5.40827 15.4218C6.3425 13.1661 7.70896 11.1291 9.41862 9.41916L6.58999 6.59093ZM11.9179 9.09049L9.4186 6.59092L6.59001 9.41918L9.08927 11.9187L11.9179 9.09049Z" fill="#F1B705"/>
</g>
<defs>
<clipPath id="clip0_336_2589">
<rect width="45" height="40" fill="white"/>
</clipPath>
</defs>
</svg>
