<?xml version="1.0" encoding="utf-8"?><svg viewBox="0 0 45 52" xmlns="http://www.w3.org/2000/svg" xmlns:xlink="http://www.w3.org/1999/xlink"><style>:root>svg{display:none}:root>svg:target{display:block}</style><svg fill="none" viewBox="0 0 45 40" id="Speed_icon" xmlns="http://www.w3.org/2000/svg"><g clip-path="url(#ea)"><path d="m36.996 37-1.415 1.414 1.415 1.415 1.414-1.415L36.996 37Zm5.61-10.498-1.962-.39 1.962.39ZM41.44 14.657l1.847-.766-1.847.766Zm-7.55-9.202-1.112 1.663 1.111-1.663Zm-22.78 0 1.112 1.663-1.111-1.663ZM2.395 26.502l1.961-.39-1.961.39ZM8.004 37 6.59 38.414l1.414 1.415 1.415-1.415L8.004 37ZM20.5 5.535v2h4v-2h-4Zm15.41 27.551-1.413-1.414-2.829 2.828 1.414 1.415 2.829-2.829Zm-23.992 2.829 1.414-1.415-2.829-2.828-1.414 1.414 2.829 2.829Zm27.547-15.412h-2v4h2v-4ZM3.56 14.655l-1.847-.765 1.847.765Zm1.974 9.847h2v-4h-2v4Zm2.47-16.498L6.59 6.591l1.414 1.414ZM9.09 11.92l1.414 1.414 2.829-2.828-1.414-1.415-2.829 2.829ZM21.401 26.43l12.064-12.066-2.828-2.828-12.065 12.066 2.829 2.828ZM38.41 38.414a22.504 22.504 0 0 0 6.158-11.522l-3.923-.78a18.503 18.503 0 0 1-5.064 9.474l2.829 2.828Zm4.877-24.523A22.502 22.502 0 0 0 35 3.792l-2.222 3.326a18.501 18.501 0 0 1 6.814 8.304l3.695-1.53ZM35 3.792A22.498 22.498 0 0 0 22.5 0v4c3.659 0 7.236 1.085 10.278 3.118L35 3.792ZM22.5 0C18.05 0 13.7 1.32 10 3.792l2.222 3.326A18.498 18.498 0 0 1 22.5 4V0ZM.432 26.892A22.503 22.503 0 0 0 6.59 38.414l2.829-2.828a18.503 18.503 0 0 1-5.064-9.474l-3.923.78ZM24.5 5.535V2h-4v3.535h4Zm13.91 30.05-2.5-2.499-2.828 2.829 2.5 2.5 2.828-2.83Zm-28.991 2.83 2.499-2.5-2.829-2.829-2.499 2.5 2.829 2.828Zm35.149-11.523c.289-1.452.432-2.923.432-4.39h-4c0 1.207-.118 2.416-.355 3.61l3.923.78Zm.432-4.39c0-2.94-.577-5.867-1.713-8.61l-3.695 1.53A18.504 18.504 0 0 1 41 22.502h4Zm-2-2h-3.535v4H43v-4Zm-41.287-6.61A22.504 22.504 0 0 0 0 22.501h4c0-2.418.474-4.824 1.408-7.08l-3.695-1.53ZM0 22.501c0 1.468.143 2.938.432 4.39l3.923-.78A18.503 18.503 0 0 1 4 22.502H0Zm5.534-2H2v4h3.534v-4ZM10 3.793a22.499 22.499 0 0 0-3.41 2.799l2.829 2.828a18.495 18.495 0 0 1 2.803-2.3L10 3.791ZM6.59 6.591a22.502 22.502 0 0 0-4.877 7.3l3.695 1.53a18.503 18.503 0 0 1 4.01-6.002L6.59 6.591Zm5.328 2.5-2.5-2.5L6.59 9.419l2.5 2.5 2.828-2.829Z" fill="" stroke=""/></g><defs><clipPath id="ea"><path fill="" d="M0 0h45v40H0z" stroke=""/></clipPath></defs></svg><svg fill="none" viewBox="0 0 40 40" id="arrow" xmlns="http://www.w3.org/2000/svg"><path d="M8 9.125h22.875m0 0V32m0-22.875-21.75 21.75" stroke="" stroke-width="2" fill=""/></svg><svg fill="none" viewBox="0 0 44 52" id="arrow-cat" xmlns="http://www.w3.org/2000/svg"><path d="M32 26a12 12 0 0 1-11.832-10M32 26a12 12 0 0 0-11.832 10M32 26H0" stroke="" stroke-width="3" fill=""/></svg><svg fill="none" viewBox="0 0 24 24" id="plus" xmlns="http://www.w3.org/2000/svg"><path d="M12 24V0m12 12H0" stroke="" stroke-width="2" fill=""/></svg><svg fill="none" viewBox="0 0 40 40" id="prod-1" xmlns="http://www.w3.org/2000/svg"><g clip-path="url(#da)"><path d="M38 2 2 38V2l36 36V2Z" stroke="" stroke-width="4" stroke-linejoin="bevel" fill=""/></g><defs><clipPath id="da"><path fill="" d="M0 0h40v40H0z" stroke=""/></clipPath></defs></svg></svg>